<?xml version="1.0" standalone="no"?>
<!DOCTYPE svg PUBLIC "-//W3C//DTD SVG 1.1//EN" "http://www.w3.org/Graphics/SVG/1.1/DTD/svg11.dtd">
<svg xmlns="http://www.w3.org/2000/svg">
<metadata>Copyright (C) 2017 by original authors @ fontello.com</metadata>
<defs>
<font id="fontello" horiz-adv-x="1000" >
<font-face font-family="fontello" font-weight="400" font-stretch="normal" units-per-em="1000" ascent="850" descent="-150" />
<missing-glyph horiz-adv-x="1000" />
<glyph glyph-name="id-card" unicode="&#xe800;" d="M983 608h-400v134c0 10-6 16-16 16h-134c-10 0-16-6-16-16v-134h-400c-10 0-17-6-17-16v-634c0-10 7-16 17-16h966c10 0 17 6 17 16v634c0 10-7 16-17 16z m-533 117h100v-200h-100v200z m-165-520l-27 70h54l-27-70z m-63 70l45-118v-149h33v142l2 2 46 123h19c46 0 83-37 83-83v-217h-50v167h-33v-167h-167v167h-33v-167h-50v217c0 46 36 83 83 83h22z m745-300h-484v217c0 65-51 116-116 116h-167c-65 0-117-51-117-116v-217h-50v600h384v-67c0-10 6-16 16-16h134c10 0 16 6 16 16v67h384v-600z m-484 717h34v-34h-34v34z m-183-150h-33c-47 0-84-37-84-84v-50c0-46 37-83 84-83h33c47 0 83 37 83 83v50c0 47-36 84-83 84z m50-134c0-28-22-50-50-50h-33c-29 0-50 22-50 50v50c0 29 21 50 50 50h33c28 0 50-21 50-50v-50z m417 100h150v-33h-150v33z m-167-66h317v-34h-317v34z m-33-134h233v-33h-233v33z m266 0h84v-33h-84v33z m17-66h67v-34h-67v34z m-100 0h-17v-34h17 50 17v34h-17-50z m-117 0h67v-34h-67v34z m-66-100h233v-34h-233v34z m266 0h84v-34h-84v34z m17-67h67v-33h-67v33z m-100 0h-17v-33h17 50 17v33h-17-50z m-117 0h67v-33h-67v33z" horiz-adv-x="1000" />

<glyph glyph-name="interview" unicode="&#xe801;" d="M317 417h33v-34h-33v34z m0-67h33v-33h-33v33z m0 283h33c47 0 83 37 83 84v50c0 46-36 83-83 83h-33c-47 0-84-37-84-83v-50c0-47 37-84 84-84z m-50 134c0 28 21 50 50 50h33c28 0 50-22 50-50v-50c0-29-22-50-50-50h-33c-29 0-50 21-50 50v50z m716-484h-450v217c0 65-51 117-116 117h-167c-65 0-117-52-117-117v-217h-116c-10 0-17-6-17-16v-100c0-10 7-17 17-17h50v-300h33v300h733v33h-750-50v67h934v-67h-50c-10 0-17-6-17-16v-317h33v300h50c10 0 17 7 17 17v100c0 10-7 16-17 16z m-621 300l-27-70-27 70h54z m-195-83c0 47 36 83 83 83h22l46-123c2-5 9-10 15-10 7 0 14 5 19 10l46 123h19c46 0 83-36 83-83v-217h-50v167h-33v-167h-167v167h-33v-167h-50v217l0 0z m816 300h-400c-10 0-16-7-16-17v-233c0-10 6-17 16-17h84v-66c0-7 3-14 10-15 1-2 5-2 6-2 5 0 9 2 12 5l78 78h210c10 0 17 7 17 17v233c0 10-7 17-17 17z m-16-233h-200c-5 0-9-2-12-5l-55-55v43c0 10-7 17-17 17h-83v200h367v-200z m-317 150h100v-34h-100v34z m133 0h100v-34h-100v34z m-133-67h267v-33h-267v33z m-67-583h-166c-10 0-17-7-17-17v-100c0-10 7-17 17-17h166c10 0 17 7 17 17v100c0 10-7 17-17 17z m-16-100h-134v66h134v-66z m100 83h33v-33h-33v33z m66 0h34v-33h-34v33z m67 0h33v-33h-33v33z m-133-67h33v-33h-33v33z m66 0h34v-33h-34v33z m67 0h33v-33h-33v33z m-633 67h33v-33h-33v33z m66 0h34v-33h-34v33z m67 0h33v-33h-33v33z m-133-67h33v-33h-33v33z m66 0h34v-33h-34v33z m67 0h33v-33h-33v33z" horiz-adv-x="1000" />

<glyph glyph-name="job" unicode="&#xe802;" d="M933 667h-250v66h34c10 0 16 7 16 17v67c0 10-6 16-16 16h-434c-10 0-16-6-16-16v-67c0-10 6-17 16-17h34v-66h-250c-37 0-67-30-67-67v-250c0-10 7-17 17-17h50v-450c0-10 6-16 16-16h434v33h-417v433h233v34h-250-50v233c0 18 15 33 34 33h266 334 266c19 0 34-15 34-33v-233h-34v-34h50c10 0 17 7 17 17v250c0 37-30 67-67 67z m-633 133h400v-33h-400v33z m50-133v66h300v-66h-300z m283-367v100c0 10-6 17-16 17h-234c-10 0-16-7-16-17v-100c0-10 6-17 16-17h234c10 0 16 7 16 17z m-33 17h-200v66h200v-66z m267-100h-167c-65 0-117-52-117-117v-233h34v233c0 47 36 83 83 83h22l46-123c2-5 9-10 15-10 7 0 14 5 19 10l46 123h19c46 0 83-36 83-83v-233h33v233c0 65-51 117-116 117z m-82-104l-27 70h54l-27-70z m-18-96h33v-34h-33v34z m0-67h33v-33h-33v33z m0 283h33c47 0 83 37 83 84v50c0 46-36 83-83 83h-33c-47 0-84-37-84-83v-50c0-47 37-84 84-84z m-50 134c0 28 21 50 50 50h33c28 0 50-22 50-50v-50c0-29-22-50-50-50h-33c-29 0-50 21-50 50v50z m-50-317h33v-183h-33v183z m200 0h33v-183h-33v183z" horiz-adv-x="1000" />

<glyph glyph-name="job-search" unicode="&#xe803;" d="M983 500h-966c-10 0-17-7-17-17v-233c0-10 7-17 17-17h333v34h-317v200h667v-200h-50v-34h333c10 0 17 7 17 17v233c0 10-7 17-17 17z m-16-233h-234v200h234v-200z m-384-134h-166c-65 0-117-51-117-116v-167h33v167c0 46 37 83 84 83h21l47-123c2-5 8-10 15-10s13 5 18 10l47 123h18c47 0 84-37 84-83v-167h33v167c0 65-52 116-117 116z m-81-103l-27 70h53l-26-70z m-19-80h34v-33h-34v33z m0-67h34v-33h-34v33z m0 267h34c46 0 83 37 83 83v50c0 47-37 84-83 84h-34c-46 0-83-37-83-84v-50c0-46 37-83 83-83z m-50 133c0 29 22 50 50 50h34c28 0 50-21 50-50v-50c0-28-22-50-50-50h-34c-28 0-50 22-50 50v50z m-50-316h34v-117h-34v117z m200 0h34v-117h-34v117z m-500 450h50v-34h-50v34z m84 0h50v-34h-50v34z m83 0h50v-34h-50v34z m83 0h50v-34h-50v34z m-250-67h50v-33h-50v33z m84 0h50v-33h-50v33z m83 0h50v-33h-50v33z m600-50c37 0 67 30 67 67s-30 66-67 66-67-30-67-66 30-67 67-67z m0 100c18 0 33-15 33-33 0-19-15-34-33-34s-33 15-33 34c0 18 15 33 33 33z m-733 217h228l95-64c3-1 7-3 10-3s5 0 8 2c5 3 9 8 9 15v266c0 10-7 17-17 17h-333c-10 0-17-7-17-17v-200c0-10 7-16 17-16z m16 200h300v-220l-73 50c-3 1-7 3-10 3h-217v167z m409-265c3-2 5-2 8-2s7 2 10 3l95 64h228c10 0 17 6 17 16v200c0 10-7 17-17 17h-333c-10 0-17-7-17-17v-266c0-7 4-12 9-15z m25 265h300v-165h-217c-3 0-7-2-10-4l-73-50v219z m-400-34h116v-33h-116v33z m150 0h66v-33h-66v33z m-150-66h116v-34h-116v34z m150 0h66v-34h-66v34z m283 66h117v-33h-117v33z m150 0h67v-33h-67v33z m-150-66h117v-34h-117v34z m150 0h67v-34h-67v34z m-750-834h33v-33h-33v33z m67 0h33v-33h-33v33z m66 0h34v-33h-34v33z m67 0h33v-33h-33v33z m-133 67h33v-33h-33v33z m66 0h34v-33h-34v33z m67 0h33v-33h-33v33z m-67 67h34v-34h-34v34z m67 0h33v-34h-33v34z m0 66h33v-33h-33v33z m567-200h33v-33h-33v33z m66 0h34v-33h-34v33z m67 0h33v-33h-33v33z m67 0h33v-33h-33v33z m-200 67h33v-33h-33v33z m66 0h34v-33h-34v33z m67 0h33v-33h-33v33z m-133 67h33v-34h-33v34z m66 0h34v-34h-34v34z m-66 66h33v-33h-33v33z" horiz-adv-x="1000" />

<glyph glyph-name="job-search-1" unicode="&#xe804;" d="M983 583c10 0 17 7 17 17v233c0 10-7 17-17 17h-366c-10 0-17-7-17-17v-100h-200v100c0 10-7 17-17 17h-366c-10 0-17-7-17-17v-233c0-10 7-17 17-17h150v-83h-150c-10 0-17-7-17-17v-233c0-10 7-17 17-17h300v34h-284v200h350v33h-183v83h183c10 0 17 7 17 17v100h200v-100c0-10 7-17 17-17h166v-83h-166v-33h350v-200h-284v-34h300c10 0 17 7 17 17v233c0 10-7 17-17 17h-166v83h166z m-616 34h-334v200h334v-200z m266 200h334v-200h-334v200z m-50-617h-166c-65 0-117-52-117-117v-233h33v233c0 47 37 84 84 84h21l47-124c2-5 8-10 15-10s13 5 18 10l47 124h18c47 0 84-37 84-84v-233h33v233c0 65-52 117-117 117z m-81-103l-27 70h53l-26-70z m-19-97h34v-33h-34v33z m0-67h34v-33h-34v33z m0 284h34c46 0 83 36 83 83v50c0 47-37 83-83 83h-34c-46 0-83-36-83-83v-50c0-47 37-83 83-83z m-50 133c0 28 22 50 50 50h34c28 0 50-22 50-50v-50c0-28-22-50-50-50h-34c-28 0-50 22-50 50v50z m-50-317h34v-183h-34v183z m200 0h34v-183h-34v183z m-500 734h167v-34h-167v34z m0-67h234v-33h-234v33z m600-283h167v-34h-167v34z m0-67h234v-33h-234v33z m0 417h34v-34h-34v34z m67 0h33v-34h-33v34z m67 0h33v-34h-33v34z m66 0h34v-34h-34v34z m-200-67h34v-33h-34v33z m67 0h33v-33h-33v33z m67 0h33v-33h-33v33z m66 0h34v-33h-34v33z m-800-283h34v-34h-34v34z m67 0h33v-34h-33v34z m67 0h33v-34h-33v34z m66 0h34v-34h-34v34z m-200-67h34v-33h-34v33z m67 0h33v-33h-33v33z m67 0h33v-33h-33v33z m66 0h34v-33h-34v33z" horiz-adv-x="1000" />

<glyph glyph-name="marketing" unicode="&#xe805;" d="M800 642c-10 0-17-7-17-17v-40l-200 117v23c0 10-6 17-16 17h-100c-10 0-17-7-17-17v-217h33v200h67v-16-600-17h-67v50h-33v-67c0-10 7-16 17-16h100c10 0 16 6 16 16v25l200 115v-40c0-10 7-16 17-16h100v-167c0-10 7-17 17-17h83v34h-67v33h67v33h-67v17h67v33h-67v34h67v33h-83-100v50 2 265h-34v-255l-200-115v541l209-121c5-4 11-4 16 0 5 3 9 8 9 15v51h183v34h-200z m50-100v-134c0-10 7-16 17-16h133v33h-117v100h117v33h-133c-10 0-17-6-17-16z m17-200c-10 0-17-7-17-17v-83c0-10 7-17 17-17h66c10 0 17 7 17 17v83c0 10-7 17-17 17h-66z m50-84h-34v50h34v-50z m-467-100h33v167c0 65-51 117-116 117h-167c-65 0-117-52-117-117v-167h34v167c0 47 36 83 83 83h22l46-123c2-5 9-10 15-10 7 0 14 5 19 10l46 123h19c46 0 83-36 83-83v-167l0 0z m-165 180l-27 70h54l-27-70z m-18-80h33v-33h-33v33z m0-66h33v-34h-33v34z m0 483c-47 0-84-37-84-83v-50c0-47 37-84 84-84h33c47 0 83 37 83 84v50c0 46-36 83-83 83h-33z m83-83v-50c0-29-22-50-50-50h-33c-29 0-50 21-50 50v50c0 28 21 50 50 50h33c28 0 50-22 50-50z m-183-317h33v-117h-33v117z m200 0h33v-117h-33v117z m-367-150h283v-33h-283v33z m333 0h84v-33h-84v33z m-200 617h284v-34h-284v34z m-133 0h83v-34h-83v34z m0-84h33v-33h-33v33z m100-33h33v-33h-33v33z m-67-167h34v-33h-34v33z m17 100h33v-33h-33v33z m83-66h34v-34h-34v34z m-133-134h33v-33h-33v33z m33-116h34v-34h-34v34z" horiz-adv-x="1000" />

<glyph glyph-name="planning" unicode="&#xe806;" d="M367 483v-33h200c10 0 16 7 16 17v83c0 10-6 17-16 17h-450c-65 0-117-52-117-117v-233h33v233c0 47 37 83 84 83h21l47-123c2-5 8-10 15-10s13 5 18 10l47 123h285v-50h-183z m-165-20l-27 70h53l-26-70z m81-580h-66v317h-34v-317h-66v550h-34v-566c0-10 7-17 17-17h100 100c10 0 17 7 17 17v566h-34v-550z m-100 484h34v-34h-34v34z m0-67h34v-33h-34v33z m0 283h34c46 0 83 37 83 84v50c0 46-37 83-83 83h-34c-46 0-83-37-83-83v-50c0-47 37-84 83-84z m-50 134c0 28 22 50 50 50h34c28 0 50-22 50-50v-50c0-29-22-50-50-50h-34c-28 0-50 21-50 50v50z m367-100h367c10 0 16 6 16 16v200c0 10-6 17-16 17h-367c-10 0-17-7-17-17v-200c0-10 7-16 17-16z m17 200h333v-167h-333v167z m116-584h-233c-10 0-17-6-17-16v-134c0-10 7-16 17-16h100v-50h-100c-10 0-17-7-17-17v-133c0-10 7-17 17-17h233c10 0 17 7 17 17v133c0 10-7 17-17 17h-100v50h100c10 0 17 6 17 16v134c0 10-7 16-17 16z m-16-350h-200v100h200v-100z m0 217h-200v100h200v-100z m366-33c10 0 17 6 17 16v134c0 10-7 16-17 16h-233c-10 0-17-6-17-16v-134c0-10 7-16 17-16h100v-50h-100c-10 0-17-7-17-17v-133c0-10 7-17 17-17h233c10 0 17 7 17 17v133c0 10-7 17-17 17h-100v50h100z m-16-184h-200v100h200v-100z m-200 317h200v-100h-200v100z m116 67v50c0 10-6 16-16 16h-167v250h-33v-250h-150c-10 0-17-6-17-16v-50h33v33h317v-33h33z m-333 516h200v-33h-200v33z m0-66h267v-34h-267v34z m-83-550h33v-34h-33v34z m66 0h34v-34h-34v34z m-66-217h33v-33h-33v33z m66 0h34v-33h-34v33z m284 0h33v-33h-33v33z m66 0h34v-33h-34v33z m-66 217h33v-34h-33v34z m66 0h34v-34h-34v34z" horiz-adv-x="1000" />

<glyph glyph-name="planning-1" unicode="&#xe807;" d="M138 533l47-123c2-5 8-10 15-10s13 5 18 10l47 123h285v-50h-183v-33h200c10 0 16 7 16 17v83c0 10-6 17-16 17h-450c-65 0-117-52-117-117v-233h33v233c0 47 37 83 84 83h21z m64-70l-27 70h53l-26-70z m-19-96h34v-34h-34v34z m0-67h34v-33h-34v33z m0 283h34c46 0 83 37 83 84v50c0 46-37 83-83 83h-34c-46 0-83-37-83-83v-50c0-47 37-84 83-84z m-50 134c0 28 22 50 50 50h34c28 0 50-22 50-50v-50c0-29-22-50-50-50h-34c-28 0-50 21-50 50v50z m850-700h-50v100c0 10-6 16-16 16h-117v450h83c10 0 17 7 17 17v200c0 28-22 50-50 50h-400c-28 0-50-22-50-50v-200c0-10 7-17 17-17h100 250v-450h-234v284h-33v-284h-117c-10 0-16-6-16-16v-100h-50v416h-34v-550h-66v317h-34v-317h-66v550h-34v-566c0-10 7-17 17-17h100 100 683c10 0 17 7 17 17v133c0 10-7 17-17 17z m-533 800h400c10 0 17-7 17-17v-100h-434v100c0 10 7 17 17 17z m67-200h-84v50h434v-50h-84-266z m-117-517h117 266 117v-83h-500v83z m-83-217v100h66 534 50v-33h-384v-33h384v-34h-650z m166 67h67v-33h-67v33z" horiz-adv-x="1000" />

<glyph glyph-name="presentation" unicode="&#xe808;" d="M367 483v-33h200c10 0 16 7 16 17v83c0 10-6 17-16 17h-450c-65 0-117-52-117-117v-233h33v233c0 47 37 83 84 83h21l47-123c2-5 8-10 15-10s13 5 18 10l47 123h285v-50h-183z m-165-20l-27 70h53l-26-70z m81-580h-66v317h-34v-317h-66v550h-34v-566c0-10 7-17 17-17h100 100c10 0 17 7 17 17v566h-34v-550z m-100 484h34v-34h-34v34z m0-67h34v-33h-34v33z m0 283h34c46 0 83 37 83 84v50c0 46-37 83-83 83h-34c-46 0-83-37-83-83v-50c0-47 37-84 83-84z m-50 134c0 28 22 50 50 50h34c28 0 50-22 50-50v-50c0-29-22-50-50-50h-34c-28 0-50 21-50 50v50z m850 133h-633v-33h617v-650h-567-17v-17-17-66c0-10 7-17 17-17h583c10 0 17 7 17 17v83 683c0 10-7 17-17 17z m-16-767h-550v50h550v-50z m-317 484h150v-34h-150v34z m0-67h233v-33h-233v33z m0-67h233v-33h-233v33z m0-66h233v-34h-233v34z m0-67h33v-33h-33v33z m67 0h33v-33h-33v33z m66 0h34v-33h-34v33z m67 0h33v-33h-33v33z m-467 0h34v-33h-34v33z m67 0h33v-33h-33v33z m67 0h33v-33h-33v33z m66 0h34v-33h-34v33z m-200 67h34v-34h-34v34z m67 0h33v-34h-33v34z m67 0h33v-34h-33v34z m66 0h34v-34h-34v34z m-200 66h34v-33h-34v33z m67 0h33v-33h-33v33z m67 0h33v-33h-33v33z m66 0h34v-33h-34v33z m-200-200h34v-33h-34v33z m67 0h33v-33h-33v33z m67 0h33v-33h-33v33z m66 0h34v-33h-34v33z m67 0h33v-33h-33v33z m67 0h33v-33h-33v33z m66 0h34v-33h-34v33z m67 0h33v-33h-33v33z m-500 517h150v-33h-150v33z m0-83h283v-34h-283v34z m183 83h67v-33h-67v33z m350-50c0 37-30 67-66 67-37 0-67-30-67-67s30-67 67-67c36 0 66 30 66 67z m-100 0c0 18 15 33 34 33 18 0 33-15 33-33s-15-33-33-33c-19 0-34 15-34 33z" horiz-adv-x="1000" />

<glyph glyph-name="resume" unicode="&#xe809;" d="M33 633h167c10 0 17 7 17 17v167h550v-84h33v100c0 10-7 17-17 17h-583l0 0c-2 0-3 0-5-2h-2c-1-1-3-1-5-3l0 0-183-183 0 0c-2-2-2-4-3-5v-2c0-2-2-3-2-5l0 0v-783c0-10 7-17 17-17h483v33h-467v750l0 0z m24 34l63 63 63 63v-126h-126z m826-467h-166c-65 0-117-52-117-117v-233h33v233c0 47 37 84 84 84h21l47-124c2-5 8-10 15-10s13 5 18 10l47 124h18c47 0 84-37 84-84v-233h33v233c0 65-52 117-117 117z m-81-103l-27 70h53l-26-70z m-19-97h34v-33h-34v33z m0-67h34v-33h-34v33z m0 284h34c46 0 83 36 83 83v50c0 47-37 83-83 83h-34c-46 0-83-36-83-83v-50c0-47 37-83 83-83z m-50 133c0 28 22 50 50 50h34c28 0 50-22 50-50v-50c0-28-22-50-50-50h-34c-28 0-50 22-50 50v50z m-50-317h34v-183h-34v183z m200 0h34v-183h-34v183z m100 584h-50v50c0 10-6 16-16 16h-350v-33h333v-33h-50-467c-3 0-6-2-8-2l-132-50c-5-2-10-8-10-15s5-13 10-15l132-50c2 0 3-2 5-2s3 0 3 0h467 133c10 0 17 7 17 17v100c0 10-7 17-17 17z m-616-42v-52l-70 27 70 25z m33 8h433v-66h-433v66z m567-66h-100v66h100v-66z m-867-134h167v-33h-167v33z m0-66h167v-34h-167v34z m0-67h167v-33h-167v33z m0-67h167v-33h-167v33z m233 200h167v-33h-167v33z m0-66h167v-34h-167v34z m234 66h83v-33h-83v33z m0-66h83v-34h-83v34z m-234-67h167v-33h-167v33z m0-67h167v-33h-167v33z m-233-83h33v-33h-33v33z m67 0h33v-33h-33v33z m66 0h34v-33h-34v33z m100 0h34v-33h-34v33z m67 0h33v-33h-33v33z m67 0h33v-33h-33v33z m-367-67h33v-33h-33v33z m67 0h33v-33h-33v33z m66 0h34v-33h-34v33z m100 0h34v-33h-34v33z m67 0h33v-33h-33v33z m67 0h33v-33h-33v33z m-367-66h33v-34h-33v34z m67 0h33v-34h-33v34z m66 0h34v-34h-34v34z m100 0h34v-34h-34v34z m67 0h33v-34h-33v34z m67 0h33v-34h-33v34z" horiz-adv-x="1000" />

<glyph glyph-name="teamwork" unicode="&#xe80a;" d="M83 67h34v-217h-34v217z m200 0h34v-217h-34v217z m-100-67h34v-33h-34v33z m0-67h34v-33h-34v33z m0 284h34c46 0 83 36 83 83v50c0 47-37 83-83 83h-34c-46 0-83-36-83-83v-50c0-47 37-83 83-83z m-50 133c0 28 22 50 50 50h34c28 0 50-22 50-50v-50c0-28-22-50-50-50h-34c-28 0-50 22-50 50v50z m750-150h-150-16-434-33-133c-65 0-117-52-117-117v-233h33v233c0 47 37 84 84 84h21l47-124c2-5 8-10 15-10s13 5 18 10l47 124h18c47 0 84-37 84-84v-233h33v233c0 34-13 62-35 84h73l47-124c2-5 8-10 15-10s13 5 18 10l47 124h70c-22-22-35-50-35-84v-233h33v233c0 47 37 84 84 84h16 5l47-124c2-5 8-10 15-10s13 5 18 10l47 124h18c47 0 84-37 84-84v-233h33v233c0 65-52 117-117 117z m-681-103l-27 70h53l-26-70z m300 0l-27 70h53l-26-70z m300 0l-27 70h53l-26-70z m-119-30h34v-217h-34v217z m200 0h34v-217h-34v217z m-100-67h34v-33h-34v33z m0-67h34v-33h-34v33z m0 284h34c46 0 83 36 83 83v50c0 47-37 83-83 83h-34c-46 0-83-36-83-83v-50c0-47 37-83 83-83z m-50 133c0 28 22 50 50 50h34c28 0 50-22 50-50v-50c0-28-22-50-50-50h-34c-28 0-50 22-50 50v50z m-250-350h34v-33h-34v33z m0-67h34v-33h-34v33z m0 500c-46 0-83-36-83-83v-50c0-47 37-83 83-83h34c46 0 83 36 83 83v50c0 47-37 83-83 83h-34z m84-83v-50c0-28-22-50-50-50h-34c-28 0-50 22-50 50v50c0 28 22 50 50 50h34c28 0 50-22 50-50z m366 333h-250v67h34c10 0 16 7 16 17v66c0 10-6 17-16 17h-434c-10 0-16-7-16-17v-66c0-10 6-17 16-17h34v-67h-250c-37 0-67-30-67-66v-250c0-10 7-17 17-17h50v33h-34v234c0 18 15 33 34 33h266 334 266c19 0 34-15 34-33v-234h-34v-33h50c10 0 17 7 17 17v250c0 36-30 66-67 66z m-633 134h400v-34h-400v34z m50-134v67h300v-67h-300z m17-200v-50h33v34h200v-34h33v50c0 10-6 17-16 17h-234c-10 0-16-7-16-17z m16 100h134v-33h-134v33z m167 0h67v-33h-67v33z" horiz-adv-x="1000" />

<glyph glyph-name="video-conference" unicode="&#xe80b;" d="M950 850h-900c-28 0-50-22-50-50v-617-150c0-10 7-16 17-16h333v-167h33v167h234v-167h33v167h333c10 0 17 6 17 16v150 617c0 28-22 50-50 50z m-917-50c0 10 7 17 17 17h900c10 0 17-7 17-17v-600h-450v217c0 65-52 116-117 116h-167c-65 0-116-51-116-116v-217h-84v600z m367-433v-167h-167v167h-33v-167h-50v217c0 46 37 83 83 83h22l47-123c1-5 8-10 15-10 6 0 13 5 18 10l47 123h18c47 0 83-37 83-83v-217h-50v167h-33z m-108 133h53l-27-70-26 70z m675-450h-334-266-334v117h934v-117z m-667 283h33v-33h-33v33z m0-66h33v-34h-33v34z m0 283h33c47 0 84 37 84 83v50c0 47-37 84-84 84h-33c-47 0-83-37-83-84v-50c0-46 36-83 83-83z m-50 133c0 29 22 50 50 50h33c29 0 50-21 50-50v-50c0-28-21-50-50-50h-33c-28 0-50 22-50 50v50z m333-166h300c10 0 17 6 17 16v200c0 10-7 17-17 17h-300c-10 0-16-7-16-17v-200c0-10 6-16 16-16z m17 200h267v-167h-267v167z m-17-484h300c10 0 17 7 17 17v200c0 10-7 17-17 17h-300c-10 0-16-7-16-17v-200c0-10 6-17 16-17z m17 200h267v-166h-267v166z m117 250h33v-33h-33v33z m66 0h34v-33h-34v33z m-133 0h33v-33h-33v33z m67-66h33v-34h-33v34z m66 0h34v-34h-34v34z m-133 0h33v-34h-33v34z m67-217h33v-33h-33v33z m66 0h34v-33h-34v33z m-133 0h33v-33h-33v33z m67-67h33v-33h-33v33z m66 0h34v-33h-34v33z m-133 0h33v-33h-33v33z" horiz-adv-x="1000" />

<glyph glyph-name="workers" unicode="&#xe80c;" d="M467 242h-67v233c0 65-52 117-117 117h-166c-65 0-117-52-117-117v-233h33v233c0 47 37 83 84 83h21l45-118v-148h34v141l1 2 47 123h18c47 0 84-36 84-83v-233h-50v216h-34v-233-167-150h-66v300h33v34h-100v-34h33v-300h-66v550h-34v-566c0-10 7-17 17-17h100 100c10 0 17 7 17 17v150h150c10 0 16 6 16 16v167c0 10-6 17-16 17z m-265 246l-27 70h53l-26-70z m248-280v-66h-133v66h133z m-133-133v33h133v-33h-133z m-134 533h34c46 0 83 37 83 84v50c0 46-37 83-83 83h-34c-46 0-83-37-83-83v-50c0-47 37-84 83-84z m-50 134c0 28 22 50 50 50h34c28 0 50-22 50-50v-50c0-29-22-50-50-50h-34c-28 0-50 21-50 50v50z m850-500h-66v233c0 65-52 117-117 117h-167c-65 0-116-52-116-117v-233h33v233c0 47 37 83 83 83h22l45-118v-148h33v141l2 2 47 123h18c47 0 83-36 83-83v-233h-50v216h-33v-233-167-150h-67v300h34v34h-100v-34h33v-300h-67v550h-33v-566c0-10 7-17 17-17h100 100c10 0 16 7 16 17v150h150c10 0 17 6 17 16v167c0 10-7 17-17 17z m-265 246l-26 70h53l-27-70z m249-280v-66h-134v66h134z m-134-133v33h134v-33h-134z m-133 533h33c47 0 84 37 84 84v50c0 46-37 83-84 83h-33c-47 0-83-37-83-83v-50c0-47 36-84 83-84z m-50 134c0 28 22 50 50 50h33c29 0 50-22 50-50v-50c0-29-21-50-50-50h-33c-28 0-50 21-50 50v50z" horiz-adv-x="1000" />

<glyph glyph-name="curriculum" unicode="&#xe80d;" d="M969 433c0 147-120 267-266 267-150 0-272-120-272-267h33c0 129 107 234 239 234 128 0 233-105 233-234 0-113-80-210-192-230-8-1-13-8-13-16v-104h-50v100h-33v-100h-34c-10 0-16-6-16-16v-217h33v67h83v33h-83v33h83v34h-83v33h33 84 33v-200h33v217c0 10-6 16-16 16h-34v90c120 29 205 135 205 260z m-571-233h-167c-65 0-117-52-117-117v-200h-50v750h167c10 0 17 7 17 17v167h550v-84h33v100c0 10-7 17-17 17h-583l0 0c-2 0-3 0-5-2h-2c-1-1-3-1-5-3l0 0-183-183 0 0c-2-2-2-4-3-5v-2c0-2-2-3-2-5l0 0v-783c0-10 7-17 17-17h433 17 16v233c0 65-51 117-116 117z m-310 467l63 63 63 63v-126h-126z m255-500l-27-70-27 70h54z m138-284h-50v150h-33v-150h-167v150h-33v-150h-50v200c0 47 36 84 83 84h22l46-124c2-5 9-10 15-10s14 5 19 10l46 124h19c46 0 83-37 83-84v-200l0 0z m-183 117h33v-33h-33v33z m0-67h33v-33h-33v33z m0 284h33c47 0 83 36 83 83v50c0 47-36 83-83 83h-33c-47 0-84-36-84-83v-50c0-47 37-83 84-83z m-50 133c0 28 21 50 50 50h33c28 0 50-22 50-50v-50c0-28-22-50-50-50h-33c-29 0-50 22-50 50v50z m633 83c0 102-82 184-183 184s-184-82-184-184 82-183 184-183 183 82 183 183z m-333 0c0 84 66 150 150 150s150-66 150-150c0-83-67-150-150-150s-150 67-150 150z m133 17h33v-33h-33v33z m67 0h33v-33h-33v33z m-134 0h34v-33h-34v33z m67 67h33v-34h-33v34z m0-134h33v-33h-33v33z m-550 200h167v-33h-167v33z m0-66h167v-34h-167v34z m200 66h33v-33h-33v33z m0-66h33v-34h-33v34z" horiz-adv-x="1000" />

<glyph glyph-name="curriculum-1" unicode="&#xe80e;" d="M767-117h-734v750h167c10 0 17 7 17 17v167h550v-550h33v566c0 10-7 17-17 17h-583l0 0c-2 0-3 0-5-2h-2c-1-1-3-1-5-3l0 0-183-183 0 0c-2-2-2-4-3-5v-2c0-2-2-3-2-5l0 0v-783c0-10 7-17 17-17h766c10 0 17 7 17 17v66h-33v-50l0 0z m-710 784l63 63 63 63v-126h-126z m926-450h-216v-34h200v-166h-867v-34h883c10 0 17 7 17 17v200c0 10-7 17-17 17z m-883-67h333v-33h-333v33z m0-67h733v-33h-733v33z m383 67h84v-33h-84v33z m134 0h83v-33h-83v33z m-450 167h83v-34h-83v34z m-67 0h50v-34h-50v34z m0-67h83v-33h-83v33z m100 0h50v-33h-50v33z m-33 200h83v-33h-83v33z m-67 0h50v-33h-50v33z m0-67h83v-33h-83v33z m100 0h50v-33h-50v33z m417 384h100v-34h-100v34z m50-67h50v-33h-50v33z m-350-317v-166h33v166c0 47 37 84 83 84h22l47-124c1-5 8-10 15-10 6 0 13 5 18 10l47 124h18c47 0 83-37 83-84v-166h34v166c0 65-52 117-117 117h-167c-65 0-116-52-116-117z m201 14l-26 70h53l-27-70z m-18-80h33v-34h-33v34z m0-67h33v-33h-33v33z m0 267h33c47 0 84 36 84 83v50c0 47-37 83-84 83h-33c-47 0-83-36-83-83v-50c0-47 36-83 83-83z m-50 133c0 28 22 50 50 50h33c29 0 50-22 50-50v-50c0-28-21-50-50-50h-33c-28 0-50 22-50 50v50z m-50-317h33v-116h-33v116z m200 0h33v-116h-33v116z" horiz-adv-x="1000" />

<glyph glyph-name="engineer" unicode="&#xe80f;" d="M517 217h-67v233c0 65-52 117-117 117h-166c-65 0-117-52-117-117v-217h-33c-10 0-17-6-17-16v-67c0-10 7-17 17-17h116v-266c0-10 7-17 17-17h100 100c10 0 17 7 17 17v150h150c10 0 16 6 16 16v167c0 10-6 17-16 17z m-17-34v-66h-133v66h133z m-83 267v-233h-50v216h-34v-33h-16v133h16c47 0 84-36 84-83z m-200-50v133h66v-133h-66z m-134 50c0 47 37 83 84 83h16v-133h-16v33h-34v-200h-50v217z m-50-283v33h100v-33h-100z m300-284h-66v300h33v34h-100v-34h33v-300h-66v267 67 150h166v-167-167-150z m34 167v33h133v-33h-133z m-217 617c0-47 37-84 83-84h34c46 0 83 37 83 84v33h33v33h-33v34c0 46-37 83-83 83h-34c-46 0-83-37-83-83v-34h-33v-33h33v-33z m167 0c0-29-22-50-50-50h-34c-28 0-50 21-50 50v33h134v-33z m-134 100c0 28 22 50 50 50v-50h34v50c28 0 50-22 50-50v-34h-134v34z m800-550h-66v233c0 65-52 117-117 117h-167c-65 0-116-52-116-117v-183h33v183c0 47 37 83 83 83h17v-133h-17v33h-33v-566c0-10 7-17 17-17h100 100c10 0 16 7 16 17v150h150c10 0 17 6 17 16v167c0 10-7 17-17 17z m-16-34v-66h-134v66h134z m-84 267v-233h-50v216h-33v-33h-17v133h17c47 0 83-36 83-83z m-200 83h67v-133h-67v133z m117-650h-67v300h34v34h-100v-34h33v-300h-67v484h167v-167-167-150z m33 167v33h134v-33h-134z m-216 617c0-47 36-84 83-84h33c47 0 84 37 84 84v33h33v33h-33v34c0 46-37 83-84 83h-33c-47 0-83-37-83-83v-34h-34v-33h34v-33z m166 0c0-29-21-50-50-50h-33c-28 0-50 21-50 50v33h133v-33z m-133 100c0 28 22 50 50 50v-50h33v50c29 0 50-22 50-50v-34h-133v34z" horiz-adv-x="1000" />

<glyph glyph-name="group" unicode="&#xe810;" d="M300 467h33v33c0 47 37 83 84 83h21l47-123c2-5 8-10 15-10s13 5 18 10l47 123h18c47 0 84-36 84-83v-33h33v33c0 65-52 117-117 117h-166c-65 0-117-52-117-117v-33l0 0z m202 46l-27 70h53l-26-70z m-19-96h34v-34h-34v34z m0-67h34v-33h-34v33z m0 283h34c46 0 83 37 83 84v50c0 46-37 83-83 83h-34c-46 0-83-37-83-83v-50c0-47 37-84 83-84z m-50 134c0 28 22 50 50 50h34c28 0 50-22 50-50v-50c0-29-22-50-50-50h-34c-28 0-50 21-50 50v50z m384-567h-167c-65 0-117-52-117-117v-233h34v233c0 47 36 84 83 84h167c46 0 83-37 83-84v-233h33v233c0 65-51 117-116 117z m-200-167h33v-183h-33v183z m200 0h33v-183h-33v183z m-467 167h-167c-65 0-116-52-116-117v-233h33v233c0 47 37 84 83 84h167c47 0 83-37 83-84v-233h34v233c0 65-52 117-117 117z m-183 150v-50c0-47 36-83 83-83h33c29 0 52 13 67 33h300c15-20 38-33 67-33h33c47 0 83 36 83 83v50c0 47-36 83-83 83h-33c-47 0-84-36-84-83v-50c0-5 0-12 2-17h-18v167h-34v-167h-166v167h-34v-167h-18c2 5 2 12 2 17v50c0 47-37 83-84 83h-33c-47 0-83-36-83-83z m500 0c0 28 21 50 50 50h33c28 0 50-22 50-50v-50c0-28-22-50-50-50h-33c-29 0-50 22-50 50v50z m-467 0c0 28 22 50 50 50h33c29 0 50-22 50-50v-50c0-28-21-50-50-50h-33c-28 0-50 22-50 50v50z m-50-317h33v-183h-33v183z m200 0h33v-183h-33v183z m-317 217h84v33h-100c-10 0-17-6-17-16v-100c0-10 7-17 17-17h33v33h-17v67z m950 33h-116v-33h100v-67h-34v-33h50c10 0 17 7 17 17v100c0 10-7 16-17 16z m-516-100h66v-33h-66v33z m333 600h117v-33h-117v33z m0-66h167v-34h-167v34z m0-67h167v-33h-167v33z m-717 133h117v-33h-117v33z m-50-66h167v-34h-167v34z m0-67h167v-33h-167v33z m767-67h33v-33h-33v33z m67 0h33v-33h-33v33z m66 0h34v-33h-34v33z m-900 0h34v-33h-34v33z m67 0h33v-33h-33v33z m67 0h33v-33h-33v33z m533 167h50v33h-67c-10 0-16-6-16-16v-117h33v100z m-400-100h33v117c0 10-6 16-16 16h-67v-33h50v-100z" horiz-adv-x="1000" />

<glyph glyph-name="group-1" unicode="&#xe811;" d="M333 500c0 47 37 83 84 83h21l47-123c2-5 8-10 15-10s13 5 18 10l47 123h18c47 0 84-36 84-83v-167h33v167c0 65-52 117-117 117h-166c-65 0-117-52-117-117v-167h33v167l0 0z m169 13l-27 70h53l-26-70z m-19-80h34v-33h-34v33z m0-66h34v-34h-34v34z m0 266h34c46 0 83 37 83 84v50c0 46-37 83-83 83h-34c-46 0-83-37-83-83v-50c0-47 37-84 83-84z m-50 134c0 28 22 50 50 50h34c28 0 50-22 50-50v-50c0-29-22-50-50-50h-34c-28 0-50 21-50 50v50z m-50-317h34v-117h-34v117z m200 0h34v-117h-34v117z m-300-433h-166c-65 0-117-52-117-117v-50h33v50c0 47 37 83 84 83h21l47-123c2-5 8-10 15-10s13 5 18 10l47 123h18c47 0 84-36 84-83v-50h33v50c0 65-52 117-117 117z m-81-104l-27 70h53l-26-70z m-19 120h34c46 0 83 37 83 84v50c0 46-37 83-83 83h-34c-46 0-83-37-83-83v-50c0-47 37-84 83-84z m-50 134c0 28 22 50 50 50h34c28 0 50-22 50-50v-50c0-29-22-50-50-50h-34c-28 0-50 21-50 50v50z m750-150h-166c-65 0-117-52-117-117v-50h33v50c0 47 37 83 84 83h21l47-123c2-5 8-10 15-10s13 5 18 10l47 123h18c47 0 84-36 84-83v-50h33v50c0 65-52 117-117 117z m-81-104l-27 70h53l-26-70z m-102 204c0-47 37-84 83-84h34c46 0 83 37 83 84v50c0 46-37 83-83 83h-34c-46 0-83-37-83-83v-50z m33 50c0 28 22 50 50 50h34c28 0 50-22 50-50v-50c0-29-22-50-50-50h-34c-28 0-50 21-50 50v50z m-400-67h334v33h-150v150h-34v-150h-150v-33z" horiz-adv-x="1000" />

<glyph glyph-name="human-resources" unicode="&#xe812;" d="M283 133h-166c-65 0-117-51-117-116v-167h33v167c0 46 37 83 84 83h21l47-123c2-5 8-10 15-10s13 5 18 10l47 123h18c47 0 84-37 84-83v-167h33v167c0 65-52 116-117 116z m-81-103l-27 70h53l-26-70z m-19-80h34v-33h-34v33z m0-67h34v-33h-34v33z m-83 400v-50c0-46 37-83 83-83h34c46 0 83 37 83 83v50c0 47-37 84-83 84h-34c-46 0-83-37-83-84z m33 0c0 29 22 50 50 50h34c28 0 50-21 50-50v-50c0-28-22-50-50-50h-34c-28 0-50 22-50 50v50z m-50-316h34v-117h-34v117z m200 0h34v-117h-34v117z m300 166h-166v-33h21l47-123c2-5 8-10 15-10s13 5 18 10l47 123h18c47 0 84-37 84-83v-167h33v167c0 65-52 116-117 116z m-81-103l-27 70h53l-26-70z m-19-80h34v-33h-34v33z m0-67h34v-33h-34v33z m0 267h34c46 0 83 37 83 83v50c0 47-37 84-83 84h-34c-46 0-83-37-83-84v-50c0-46 37-83 83-83z m-50 133c0 29 22 50 50 50h34c28 0 50-21 50-50v-50c0-28-22-50-50-50h-34c-28 0-50 22-50 50v50z m150-316h34v-117h-34v117z m300 166h-166v-33h21l47-123c2-5 8-10 15-10s13 5 18 10l47 123h18c47 0 84-37 84-83v-167h33v167c0 65-52 116-117 116z m-81-103l-27 70h53l-26-70z m-19-80h34v-33h-34v33z m0-67h34v-33h-34v33z m0 267h34c46 0 83 37 83 83v50c0 47-37 84-83 84h-34c-46 0-83-37-83-84v-50c0-46 37-83 83-83z m-50 133c0 29 22 50 50 50h34c28 0 50-21 50-50v-50c0-28-22-50-50-50h-34c-28 0-50 22-50 50v50z m150-316h34v-117h-34v117z m84 883v-83h-934v83h-33v-100c0-10 7-17 17-17h400v-83h-117c-10 0-17-7-17-17v-183c0-10 7-17 17-17h83c10 0 17 7 17 17v67h67v-67c0-10 6-17 16-17h84c10 0 16 7 16 17v183c0 10-6 17-16 17h-117v83h533c10 0 17 7 17 17v100h-33z m-417-383h-50v50h17v33h-34-100-33v-33h17v-50h-50v150h233v-150z m-450 383h50v-33h-50v33z m83 0h50v-33h-50v33z m84 0h50v-33h-50v33z m83 0h50v-33h-50v33z m83 0h50v-33h-50v33z m84 0h50v-33h-50v33z m83 0h50v-33h-50v33z m83 0h50v-33h-50v33z m84 0h50v-33h-50v33z m83 0h50v-33h-50v33z m-128-255l-50-50c-7-7-7-17 0-23l50-50 23 23-22 22h110v33h-110l22 22-23 23z m-617-100l23-23 50 50c7 6 7 16 0 23l-50 50-23-23 22-22h-127v-33h127l-22-22z" horiz-adv-x="1000" />

<glyph glyph-name="human-resources-1" unicode="&#xe813;" d="M33 500c0 47 37 83 84 83h21l47-123c2-5 8-10 15-10s13 5 18 10l47 123h18c47 0 84-36 84-83v-233h33v233c0 65-52 117-117 117h-166c-65 0-117-52-117-117v-233h33v233l0 0z m169 13l-27 70h53l-26-70z m-19-96h34v-34h-34v34z m0-67h34v-33h-34v33z m0 283h34c46 0 83 37 83 84v50c0 46-37 83-83 83h-34c-46 0-83-37-83-83v-50c0-47 37-84 83-84z m-50 134c0 28 22 50 50 50h34c28 0 50-22 50-50v-50c0-29-22-50-50-50h-34c-28 0-50 21-50 50v50z m750-150h-166c-65 0-117-52-117-117v-233h33v233c0 47 37 83 84 83h21l47-123c2-5 8-10 15-10s13 5 18 10l47 123h18c47 0 84-36 84-83v-233h33v233c0 65-52 117-117 117z m-81-104l-27 70h53l-26-70z m-19-96h34v-34h-34v34z m0-67h34v-33h-34v33z m0 283h34c46 0 83 37 83 84v50c0 46-37 83-83 83h-34c-46 0-83-37-83-83v-50c0-47 37-84 83-84z m-50 134c0 28 22 50 50 50h34c28 0 50-22 50-50v-50c0-29-22-50-50-50h-34c-28 0-50 21-50 50v50z m-248-307c2-5 8-10 15-10s13 5 18 10l47 123h35v34h-200v-34h38l47-123z m17 53l-27 70h53l-26-70z m-19-96h34v-34h-34v34z m0-67h34v-33h-34v33z m0 283h34c46 0 83 37 83 84v50c0 46-37 83-83 83h-34c-46 0-83-37-83-83v-50c0-47 37-84 83-84z m-50 134c0 28 22 50 50 50h34c28 0 50-22 50-50v-50c0-29-22-50-50-50h-34c-28 0-50 21-50 50v50z m550-834h-66v550h-34v-550h-66v317h-34v-317h-66v550h-34v-550h-66v250h-34v-250h-66v317h-34v-317h-66v250h-34v-250h-66v550h-34v-550h-66v317h-34v-317h-66v550h-34v-550h-66c-10 0-17-6-17-16v-67h33v50h67 100 100 100 100 100 100 100 100 67v-50h33v67c0 10-7 16-17 16z" horiz-adv-x="1000" />

<glyph glyph-name="031-hierarchical-structure" unicode="&#xe814;" d="M581 769c0 45-36 81-81 81s-81-36-81-81c0-44 37-80 81-80s81 36 81 80z m-81-48c-27 0-48 22-48 48s21 49 48 49c27 0 48-22 48-49s-21-48-48-48z m452-744v99h-81v80h65v162h-65v113h-355v96h81v81c0 45-36 81-81 81h-16-16c-45 0-81-36-81-81v-81h81v-96h-355v-113h-64v-161h64v-81h-81v-99c-27-8-48-33-48-63 0-35 29-64 65-64 35 0 64 29 64 64 0 30-21 55-48 63v67h129v-67c-28-8-49-33-49-63 0-35 29-64 65-64 35 0 64 29 64 64 0 30-20 55-48 63v99h-81v80h65v162h-65v80h323v-80h-65v-161h65v-81h-81v-99c-27-8-48-33-48-63 0-35 29-64 64-64 36 0 65 29 65 64 0 30-21 55-48 63v67h129v-67c-28-8-49-33-49-63 0-35 29-64 65-64 35 0 64 29 64 64 0 30-20 55-48 63v99h-81v81h65v161h-65v80h323v-80h-65v-161h65v-81h-81v-99c-28-8-48-33-48-63 0-35 29-64 64-64 36 0 65 29 65 64 0 30-21 55-49 63v67h129v-67c-27-8-48-33-48-63 0-35 29-64 65-64s64 29 64 64c0 30-21 55-48 63z m-855-63c0-17-15-32-32-32-18 0-33 15-33 32s15 33 33 33c17 0 32-15 32-33z m161 0c0-17-14-32-32-32s-32 15-32 32 14 33 32 33 32-15 32-33z m-64 372v-97h-97v97h97z m258-372c0-17-15-32-33-32s-32 15-32 32 15 33 32 33 33-15 33-33z m161 0c0-17-15-32-32-32-18 0-33 15-33 32s15 33 33 33c17 0 32-15 32-33z m-65 372v-97h-96v97h96z m-112 274v48c0 27 21 48 48 48v-32h32v32c27 0 49-21 49-48v-48h-129z m371-646c0-17-15-32-33-32s-32 15-32 32 14 33 32 33 33-15 33-33z m0 275v97h96v-97h-96z m129-307c-18 0-33 15-33 32s15 33 33 33 32-15 32-33-15-32-32-32z" horiz-adv-x="1000" />

<glyph glyph-name="031-id-card" unicode="&#xe815;" d="M630 403v78l178 354-30 15-174-349h-45l29 58-29 14-25-48-17 38 128 273-29 14-117-248-114 248-30-14 185-400h-38l-199 414-29-14 192-400h-37l-207 414-29-15 177-354v-78h-309v-553h878v553h-309z m-42 65l-14-28-13 28h27z m-186-52l7-13h182l7 13v-61c0-9-8-17-17-17h-162c-9 0-17 8-17 17v61l0 0z m505-534h-814v489h277v-16c0-27 22-49 49-49h162c27 0 49 22 49 49v16h277v-489z m-749 66h326v325h-326v-325z m98 32c0 18 15 33 33 33h64c18 0 33-15 33-33h-130z m-65 261h260v-261h-32c-1 36-30 65-66 65h-32-32c-36 0-65-29-66-65h-32v261z m211-114c0 45-36 81-81 81-45 0-81-36-81-81 0-45 36-82 81-82 45 0 81 37 81 82z m-81-49c-27 0-49 22-49 49 0 27 22 49 49 49 27 0 49-22 49-49 0-27-22-49-49-49z m228 195h293v-32h-293v32z m0-97h293v-33h-293v33z m0-98h293v-33h-293v33z m260-98h33v-32h-33v32z m-260 0h228v-32h-228v32z m177 855l-122-244-29 15 122 244 29-15z" horiz-adv-x="1000" />

<glyph glyph-name="031-incentive" unicode="&#xe816;" d="M968 502v216l8-4 16 28-121 69-121-69 16-28 8 4v-152h32v171l65 37 65-37v-235h-871v203l64 36 65-36v-106h32v87l8-5 16 28-121 70-121-70 16-28 8 5v-184h-32v-516h1000v516h-32z m-936-32h63c-6-32-31-57-63-63v63z m0-452v63c32-6 57-31 63-63h-63z m936 0h-63c6 32 31 57 63 63v-63z m0 96c-50-8-89-47-96-96h-744c-7 49-46 88-96 96v260c50 7 89 46 96 96h744c7-50 46-89 96-96v-260z m0 293c-32 6-57 31-63 63h63v-63z m-468 30c-107 0-194-86-194-193s87-194 194-194 194 87 194 194-87 193-194 193z m0-354c-89 0-161 72-161 161s72 161 161 161c89 0 161-72 161-161s-72-161-161-161z m-500-130h1000v-32h-1000v32z m0-64h1000v-32h-1000v32z m855 677h32v-32h-32v32z m0 162h32v-129h-32v129z m-742-33h32v-161h-32v161z m290 53v-182h33v201l64 39 65-39v-201h32v182l56-34 17 28-170 101-170-101 17-28 56 34z m81 12h32v-226h-32v226z m-290-194h32v-32h-32v32z m330-225h-8v32h-32v-32h-8c-31 0-57-26-57-57s26-56 57-56h48c14 0 24-11 24-24 0-14-10-25-24-25h-48c-13 0-24 11-24 25v8h-33v-8c0-32 26-57 57-57h8v-32h32v32h8c31 0 57 25 57 57 0 31-26 56-57 56h-48c-13 0-24 11-24 24s11 24 24 24h48c14 0 24-10 24-24v-8h33v8c0 31-26 57-57 57z" horiz-adv-x="1000" />

<glyph glyph-name="031-intelligence" unicode="&#xe817;" d="M997 203v288h-123c-44 113-137 201-252 237l-122 122-122-122c-34-11-66-26-95-45l-81 80h-119v-118l81-81c-15-23-28-48-38-75-69-10-123-70-123-142 0-72 54-132 123-143 47-124 154-217 283-247l-66-107h314l-66 107c45 10 88 28 126 54l56-56c16-16 37-25 60-25 46 0 84 38 84 84 0 23-9 44-25 60l-56 55c15 23 27 48 37 74h124z m-32 256v-224h-225v224h225z m-359 240l-90-89v83l48 48 42-42z m-106 106l41-42-41-41-41 41 41 42z m-64-64l48-48v-83l-89 89 41 42z m-75-53l139-140 139 140c90-37 162-108 200-197h-131v-234l-402 403c17 10 36 20 55 28z m-149 21l496-497v-9h10l8-8-26-26-514 514 26 26z m-96 22h73l-73-73v73z m22-96l26 26 514-515-26-25-514 514z m10-176c30 0 58-12 78-32h-157c20 20 48 32 79 32z m48-64v-96h-96v96h96z m-129-127c-19 21-32 48-32 79 0 30 13 58 32 78v-157z m2-1h157c-20-20-48-32-78-32s-59 12-79 32z m531-385h-199l99 162 100-162z m-27 104l-73 119-73-119c-119 24-219 105-266 217 73 7 131 69 131 144 0 75-58 136-131 143 7 18 16 35 26 51l507-507c-37-23-77-40-121-48z m-345 282v157c19-20 32-48 32-78 0-31-13-58-32-79z m472-195l-25 25 73 74 26-26-74-73z m169-22c10-10 16-23 16-37 0-29-24-52-52-52-14 0-27 6-37 15l-73 73 73 74 73-73z m-56 102l-50 50h76c-8-18-16-35-26-50z m40 288l-109-174h218l-109 174z m0-60l51-82h-103l52 82z m-369-435h32v-32h-32v32z" horiz-adv-x="1000" />

<glyph glyph-name="031-job-search" unicode="&#xe818;" d="M969 33l-180 180 29 29-23 23-29-29-40 40c31 55 48 119 48 187 0 213-173 387-387 387-213 0-387-174-387-387 0-213 174-387 387-387 68 0 132 17 187 48l40-40-29-29 23-23 29 29 180-180c20-20 47-31 76-31 59 0 107 48 107 107 0 29-11 56-31 76z m-857 207c-50 61-80 138-80 223 0 196 159 355 355 355 196 0 355-159 355-355 0-85-30-162-79-223-7 8-15 16-23 23 45 57 70 127 70 200 0 172-137 313-307 322-3 0-6 0-10 0-2 0-4 1-6 1-1 0-1-1-2-1-5 0-11 0-16 0-169-10-304-150-304-322 0-73 24-143 70-200-9-7-17-15-23-23z m275 320c-86 0-122 14-123 15l-22 9v-62c-13 27-19 58-15 89 8 70 64 129 134 140 4 1 8 1 11 2 4 0 7 0 11 0 4 0 8 0 12 0 2 0 4 0 6 0 54-5 104-37 130-88l4-8h10c11 0 20-9 20-20v-61c0-33-12-66-33-91l0 99-22-9c0-1-37-15-123-15z m113-22v-75c0-62-51-113-113-113s-113 51-113 113v75c21-5 58-11 113-11s92 6 113 11z m-305 76c-6-54 11-108 47-149v-2c0-43 19-81 48-108v-41l-97-22c-11-2-21-6-31-11-42 51-65 115-65 182 0 104 55 194 136 246-20-27-34-60-38-95z m109-330l57-34-36-36-43 65 22 5z m19 27v22c19-10 41-15 64-15s45 5 65 15v-22l-65-39-64 39z m148-27l22-5-44-65-36 36 58 34z m13 30v41c23 21 40 50 46 82 42 34 67 85 67 139v61c0 25-18 46-42 51-4 7-9 14-14 20 82-51 136-142 136-245 0-67-23-131-65-182-10 5-20 9-31 11l-97 22z m-97-206c-99 0-189 41-254 107 16 23 40 39 67 46l48 11 72-109 67 67 67-67 72 109 48-11c27-7 51-23 67-46-65-66-154-107-254-107z m215 33c42 29 79 65 107 107l34-35-106-106-35 34z m58-57l106 106 34-34-106-106-34 34z m233-202c-20 0-39 8-53 22l-124 123 107 107 123-123c14-15 22-34 22-54 0-41-34-75-75-75z" horiz-adv-x="1000" />

<glyph glyph-name="031-management" unicode="&#xe819;" d="M952 592v258h-194v-258h-6l-78 171-105 85-21-129 56-127h-56v-97h33v-48h-500c-45 0-81-36-81-81v-339c0-44 36-80 81-80h177v-65h-64v-32h354v32h-64v65h177c45 0 81 36 81 80v81h177c27 0 49 22 49 48v339h32v97h-48z m-162 226h129v-32h-32v-33h32v-32h-64v-32h64v-33h-32v-32h32v-32h-129v226z m-198-30l50-40-60-20 10 60z m1-91l66 22 58-127h-77l-47 105z m-141-815h-162v65h162v-65z m209 97h-580c-27 0-49 22-49 48h678c0-26-22-48-49-48z m49 81h-678v306c0 27 22 49 49 49h500v-259c0-26 21-48 48-48h81v-48z m226 161h-33v-32h33v-33c0-8-8-16-17-16h-290c-9 0-16 8-16 16v33h258v32h-258v274h323v-274z m32 306h-387v33h387v-33z m-678-32c98 0 178 80 178 178 0 97-80 177-178 177-97 0-177-80-177-177 0-98 80-178 177-178z m0 323c80 0 146-65 146-145 0-80-66-146-146-146-80 0-145 66-145 146 0 80 65 145 145 145z m16-194h-32c-9 0-16 7-16 16h-32c0-26 22-48 48-48v-32h32v32c27 0 49 22 49 48 0 27-22 49-49 49h-32c-9 0-16 7-16 16s7 16 16 16h32c9 0 17-7 17-16h32c0 27-22 48-49 48v33h-32v-33c-26 0-48-21-48-48s22-49 48-49h32c9 0 17-7 17-16 0-9-8-16-17-16z m-241-532h483v290h-483v-290z m32 258h419v-226h-419v226z m306-113c-4 45-42 81-88 81-34 0-64-19-79-49h-35l-69-104 27-17 59 89h64l59-89 27 17-26 40h69l44-58 26 19-54 71h-24z m-83 0l-21 32h-24c11 11 25 17 40 17 28 0 51-22 55-49h-50z" horiz-adv-x="1000" />

<glyph glyph-name="031-management-1" unicode="&#xe81a;" d="M500 361c36 0 65 29 65 65 0 36-29 64-65 64s-64-28-64-64c0-36 28-65 64-65z m0 97c18 0 32-14 32-32 0-18-14-32-32-32-18 0-32 14-32 32 0 18 14 32 32 32z m403 387h33v-64h-33v64z m33-64h64v-32h-64v32z m0-32h-33v-59c-51 46-119 75-193 75-77 0-150-30-205-85l-5-5-5 5c-55 55-128 85-205 85-160 0-290-130-290-290 0-78 30-150 85-205l54-54h-139v-209h162v28l61-12 109 0 168-168 415 415c55 55 85 127 85 205 0 82-35 156-90 209h26v65z m-807-710h-97v145h33v-113h32v113h32v-145z m99 16l-66 13v84h117l51 34 131 45c4 2 9 2 13 0 5-3 8-6 9-11 3-8-1-17-8-21l-90-48 63-31h153l56 30c3 2 7 2 11 1 4-1 7-4 8-8 3-7 0-15-6-18l-78-38-158-32h-206z m-66 129v9l9-9h-9z m241 185c-5 9-10 19-12 29l-3 12h-33v32h33l3 12c2 10 7 20 12 29l6 11-23 23 23 23 23-23 11 6c9 5 19 10 29 12l12 3v33h32v-33l12-3c11-2 20-7 29-12l11-6 23 23 23-23-23-23 6-11c6-9 10-19 12-29l3-12h33v-32h-33l-3-12c-2-10-6-20-12-29l-6-11 23-23-23-23-23 23-11-6c-9-6-18-10-29-12l-12-3v-33h-32v33l-12 3c-10 2-20 6-29 12l-11 6-23-23-23 23 23 23-6 11z m137-217l17 40c3 9 16 11 21 3 3-3 3-7 2-11l-11-32h-29z m428 323c0-69-27-134-76-182l-392-393-122 123 59 0 163 32 84 41c22 11 32 38 22 61-6 11-16 20-28 24-12 5-26 3-37-3l-35-19 5 14c4 14 2 29-6 41-9 12-22 18-37 18-18 0-35-11-41-28l-21-52h-50l-1 0 35 19c21 11 31 36 24 58-2 8-6 14-11 20h45v40c5 2 10 4 15 6l28-29 69 69-29 28c2 5 4 10 6 15h40v96h-40c-2 5-4 10-6 14l29 29-69 69-28-29c-5 2-10 4-15 6v40h-96v-40c-5-2-10-4-14-6l-29 29-69-69 29-29c-2-4-4-9-6-14h-40v-96h40c2-5 4-10 6-15l-29-28 69-69 29 29c4-2 9-4 14-6v-27c-1 0-2 0-2 0l-132-47-48-31h-54l-108 109c-49 48-76 113-76 182 0 142 116 257 258 257 69 0 133-26 182-75l28-28 28 28c49 49 113 75 182 75 142 0 258-115 258-257z m-129 306h64v-32h-64v32z m-645-113h32v-65h-32v65z m32-65h64v-32h-64v32z m-32-32h32v-64h-32v64z m-65 32h65v-32h-65v32z m613-161h32v-32h-32v32z m32-32h33v-32h-33v32z m-32-32h32v-33h-32v33z m-32 32h32v-32h-32v32z" horiz-adv-x="1000" />

<glyph glyph-name="031-management-2" unicode="&#xe81b;" d="M161 358l-40-41 91-92 41 41c17-10 36-18 55-23v-57h130v57c19 5 37 13 55 23l40-41 92 92-41 41c10 17 18 35 23 55h57v129h-57c-5 19-13 38-23 55l41 41-92 91-40-40c-18 10-36 17-55 23v57h-130v-57c-19-6-38-13-55-23l-41 40-91-91 40-41c-9-17-17-36-22-55h-58v-130h58c5-19 13-37 22-54z m-48 152h51l3 12c5 25 15 48 28 69l8 11-37 36 46 46 36-36 11 7c21 13 44 23 69 28l12 3v51h65v-51l13-3c24-5 47-15 68-28l11-7 36 36 46-46-36-36 7-11c14-21 23-44 28-69l3-12h51v-65h-51l-3-13c-5-24-14-47-28-68l-7-11 36-36-46-46-36 36-11-7c-21-13-44-23-68-28l-13-3v-51h-65v51l-12 3c-25 5-48 15-69 28l-11 7-36-36-46 46 36 36-7 11c-13 21-23 44-28 68l-3 13h-51v65z m260-211c98 0 178 80 178 178s-80 179-178 179-178-80-178-179 79-178 178-178z m81 57c-23-15-51-25-81-25s-58 10-81 25v24c0 27 22 49 48 49h65c27 0 49-22 49-49v-24z m-33 186c0-27-21-48-48-48s-49 21-49 48c0 27 22 49 49 49s48-22 48-49z m-52 81c-43-2-77-38-77-81 0-45 36-81 81-81s81 36 81 81c0 43-34 79-77 81 78-2 142-67 142-146 0-35-13-67-33-92-3 42-38 76-81 76h-32-33c-43 0-77-34-80-76-21 25-33 57-33 92 0 79 63 144 142 146z m-184-616l-97 98 74 74 58-58h305l204 204v305l-58 58 75 74 97-97v-454l134-134 23 23-125 125v453l-171 172h-30l-91-90v-30l114-114v-278l-185-185h-278l-114 114h-29l-91-91v-29l172-172h453l125-125 23 23-134 134h-454z m431 736v3l71 72h3l33-33-75-74-32 32z m-584-583v3l72 71h3l32-32-74-74-33 32z m745 9c-53 0-96-43-96-96 0-26 10-50 28-68l155-155 23 23-155 155c-12 12-19 28-19 45 0 35 29 64 64 64 17 0 33-7 45-19l155-155 23 23-155 155c-18 18-42 28-68 28z" horiz-adv-x="1000" />

<glyph glyph-name="031-motivation" unicode="&#xe81c;" d="M697 151l-99 23v41c24 21 41 50 47 83 42 34 68 86 68 141v62c0 25-19 46-43 51-40 71-120 110-201 97-12-2-23-5-34-9v135l65 37 65-37v-107h33v88l8-4 17 28-123 70-123-70 17-28 8 4v-131c-52-31-90-85-97-147-6-56 11-111 48-152v-2c0-43 19-82 49-109v-41l-99-23c-67-15-114-74-114-143v-158h622v158c0 69-47 128-114 143z m-76-16l-44-67-48 29 57 46 35-8z m-121-19l-65 53v24c19-10 42-16 65-16 24 0 46 6 65 16v-24l-65-53z m-147 331v-63c-13 28-19 59-15 90 8 72 65 132 136 143 70 11 139-25 172-88l4-8h10c11 0 20-9 20-20v-62c0-34-12-67-33-93l0 101-22-10c-1 0-38-15-125-15-87 0-124 15-124 15l-23 10z m33-123v77c21-5 58-11 114-11 56 0 93 6 115 11v-77c0-63-52-114-115-114-63 0-114 51-114 114z m28-181l57-46-48-29-44 67 35 8z m22-260h-116v81h-33v-81h-65v125c0 53 37 99 89 111l34 8 68-103 20 12 17-27-14-126z m95 0h-62l15 135-23 35 39 23 39-23-23-35 15-135z m247 0h-65v81h-33v-81h-116l-14 126 17 27 20-12 68 103 34-8c53-12 89-58 89-111v-125z m-589 261h33v-32h-33v32z m0 631v-598h33v579l8-4 17 28-123 70-123-70 17-28 8 4v-906h33v925l65 37 65-37z m-81-9h32v-785h-32v785z m834-883h32v-33h-32v33z m-164 294h33v-33h-33v33z m98 493l-122-70 16-28 8 4v-366h33v385l65 38 66-38v-680h32v661l9-4 16 28-123 70z m-16-84h33v-605h-33v605z m-376 180h32v-82h-32v82z m-376-818h32v-33h-32v33z m0-65h32v-33h-32v33z m752 65h33v-98h-33v98z" horiz-adv-x="1000" />

<glyph glyph-name="031-organization" unicode="&#xe81d;" d="M210 11c0 36-29 65-65 65-35 0-64-29-64-65s29-64 64-64c36 0 65 29 65 64z m-65-32c-18 0-32 14-32 32s14 33 32 33 32-15 32-33-14-32-32-32z m420 32c0 36-29 65-65 65s-64-29-64-65 28-64 64-64 65 29 65 64z m-65-32c-18 0-32 14-32 32s14 33 32 33c18 0 32-15 32-33s-14-32-32-32z m371 129v81h-355v48h320v613h-671v-613h319v-48h-355v-81h-129v-258h290v258h-129v49h323v-49h-129v-258h290v258h-129v49h323v-49h-129v-258h290v258h-129z m-774-226c0 18 14 32 32 32h32c18 0 33-14 33-32h-97z m161 194v-194h-32c0 36-29 65-65 65h-16-16c-36 0-64-29-64-65h-33v194h113 113z m194-194c0 18 14 32 32 32h32c18 0 32-14 32-32h-96z m161 194v-194h-32c0 36-29 65-65 65h-16-16c-36 0-65-29-65-65h-32v194h113 113z m-416 193v549h606v-549h-606z m610-387c0 18 14 32 32 32h32c18 0 32-14 32-32h-96z m161 0h-32c0 36-29 65-65 65h-16-16c-36 0-65-29-65-65h-32v194h113 113v-194z m-49 129c0 36-29 65-64 65-36 0-65-29-65-65s29-64 65-64c35 0 64 29 64 64z m-64-32c-18 0-32 14-32 32s14 33 32 33c18 0 32-15 32-33s-14-32-32-32z m-178 419h-96v-32h-355v-32h355v-32h96v32h97v32h-97v32z m-32-64h-32v32h32v-32z m-419 226h548v226h-548v-226z m32 193h484v-161h-484v161z m419-64h-32v-33h-32v33h-32v-33h-33v33h-32v-33h-32v33h-32v-33h-33v33h-32v-33h-32v33h-32v-33h-33v-32h420v32h-33v33z m-322-226c0 36-29 64-65 64-35 0-64-28-64-64 0-36 29-65 64-65 36 0 65 29 65 65z m-97 0c0 18 15 32 32 32 18 0 33-14 33-32s-15-32-33-32c-17 0-32 14-32 32z m258 0c0 36-29 64-64 64-36 0-65-28-65-64 0-36 29-65 65-65 35 0 64 29 64 65z m-97 0c0 18 15 32 33 32 17 0 32-14 32-32s-15-32-32-32c-18 0-33 14-33 32z m129-32h226v96h-226v-96z m129 64h65v-32h-65v32z m-96 0h64v-32h-64v32z" horiz-adv-x="1000" />

<glyph glyph-name="031-profits" unicode="&#xe81e;" d="M774 850c-124 0-226-101-226-226v-242h33v127c39-66 111-111 193-111 82 0 154 45 194 111v-595h32v710c0 125-101 226-226 226z m0-419c-106 0-193 87-193 193s87 194 193 194 194-87 194-194-87-193-194-193z m16 306v32h-32v-32c-35 0-64-29-64-64 0-36 29-65 64-65h32c18 0 33-14 33-32s-15-32-33-32h-32c-18 0-32 14-32 32v16h-32v-16c0-36 29-65 64-65v-32h32v32c36 0 65 29 65 65 0 35-29 64-65 64h-32c-18 0-32 15-32 33 0 17 14 32 32 32h32c18 0 33-15 33-32v-17h32v17c0 35-29 64-65 64z m-613-161c-97 0-177-80-177-178v-274h32v173c32-46 85-76 145-76 60 0 114 30 146 76v-318h32v419c0 98-80 178-178 178z m0-323c-80 0-145 65-145 145 0 80 65 146 145 146 81 0 146-66 146-146 0-80-65-145-146-145z m-16 194h33c9 0 16-7 16-16h32c0 26-22 48-48 48v32h-33v-32c-26 0-48-22-48-48s22-49 48-49h33c9 0 16-7 16-16 0-9-7-16-16-16h-33c-9 0-16 7-16 16h-32c0-27 22-48 48-48v-32h33v32c26 0 48 21 48 48 0 27-22 49-48 49h-33c-9 0-16 7-16 16s7 16 16 16z m404-97c-98 0-178-80-178-177v-226h32v124c33-46 86-76 146-76s113 30 145 76v-124h32v226c0 97-80 177-177 177z m0-323c-80 0-146 66-146 146s66 145 146 145c80 0 145-65 145-145s-65-146-145-146z m-17 194h33c9 0 16-7 16-16h32c0 27-22 48-48 48v33h-33v-33c-26 0-48-21-48-48 0-27 22-49 48-49h33c9 0 16-7 16-16s-7-16-16-16h-33c-8 0-16 7-16 16h-32c0-26 22-48 48-48v-32h33v32c26 0 48 22 48 48s-22 49-48 49h-33c-8 0-16 7-16 16 0 9 8 16 16 16z m420-339h32v-32h-32v32z m-129 307h32v-210h-32v210z m0 193h32v-161h-32v161z m0-435h32v-33h-32v33z m-162 435h33v-48h-33v48z m33-468h32v-32h-32v32z m-323 0h32v-32h-32v32z m210 49h32v-49h-32v49z m0-81h32v-32h-32v32z m-97 81h32v-49h-32v49z m0-81h32v-32h-32v32z m-500 210h32v-81h-32v81z m0-113h32v-32h-32v32z m323-32h32v-33h-32v33z m-210 242h32v-242h-32v242z m0-275h32v-32h-32v32z m97 275h32v-275h-32v275z m0-307h32v-32h-32v32z m209 968h33v-32h-33v32z m-29-12l23-23-23-23-23 23 23 23z m-35-52h32v-33h-32v33z m35-39l23-23-23-23-23 23 23 23z m29-26h33v-32h-33v32z m62 26l23-23-23-23-23 23 23 23z m3 39h32v-33h-32v33z m-3 52l23-23-23-23-23 23 23 23z m-416-52h32v-33h-32v33z m-30-13l23-22-23-23-23 23 23 22z m-35-52h32v-32h-32v32z m35-85l-23 23 23 23 23-23-23-23z m30 20h32v-32h-32v32z m61-20l-22 23 22 23 23-23-23-23z m3 85h32v-32h-32v32z m-3 52l23-23-23-22-23 22 23 23z m293-117h33v-241h-33v241z m0-274h33v-32h-33v32z" horiz-adv-x="1000" />

<glyph glyph-name="031-promotion" unicode="&#xe81f;" d="M774 381v243h-84l-387-177h-45v145h123l83 181c2 6 4 12 4 19v12c0 25-21 46-46 46-18 0-34-10-41-25l-68-136h-152-113c-26 0-48-22-48-49v-242-225c0-27 22-49 48-49h49v-226c0-26 22-48 48-48h129c27 0 49 22 49 48v16c0 27-22 49-49 49-9 0-16 7-16 16v145h45l384-176 3-1h84v243c46 8 81 48 81 96 0 47-35 87-81 95z m-468 275h27l76 154c3 5 7 8 13 8 7 0 14-6 14-14v-12c0-2-1-4-2-6l-73-162h-55v32z m-125 0l-20-33-20 34h40z m-149-16c0 9 8 17 16 17h56l57-96 58 96h55v-33h-48v-134c-7 3-16 5-24 5-16 0-30-6-41-17-10 11-24 17-40 17-9 0-17-2-24-5v118h-32v-48h-33v80z m145-306v105c0 13 11 24 25 24 13 0 24-11 24-24v-8-97h-49z m49-32v-33h-49v33h49z m-129 32v97 8c0 13 11 24 24 24 13 0 24-11 24-24v-105h-48z m48-32v-33h-48v33h48z m-113 225h33v-80h-17c-5 0-11-1-16-3v83z m242-596c9 0 16-8 16-17v-16c0-9-7-16-16-16h-129c-9 0-16 7-16 16v226h97v-145c0-27 22-48 48-48z m16 225h-242c-8 0-16 8-16 17v225c0 9 8 17 16 17h17v-178h80 32 81v178h32v-259z m387-168l-354 163v269l32 15v-262h32v277l290 133v-595z m65-9h-32v613h32v-613z m32 244v125c28-7 49-32 49-62 0-30-21-55-49-63z m113 79h113v-33h-113v33z m0 193h113v-32h-113v32z m0-387h113v-32h-113v32z m-645 661c0 45-36 81-81 81-44 0-80-36-80-81 0-44 36-80 80-80 45 0 81 36 81 80z m-81-48c-26 0-48 22-48 48s22 49 48 49 49-22 49-49-22-48-49-48z" horiz-adv-x="1000" />

<glyph glyph-name="031-relation" unicode="&#xe820;" d="M387 592c0 107-87 194-193 194s-194-87-194-194v-484c0-107 87-194 194-194 49 0 93 19 127 49h2v1c39 36 64 87 64 144v484z m-129 64c0-35-29-64-64-64-36 0-65 29-65 64 0 36 29 65 65 65 35 0 64-29 64-65z m-64-709c-37 0-70 12-97 32 0 36 29 65 64 65h65c35 0 64-29 64-65-27-20-60-32-96-32z m125 59c-12 41-49 70-93 70h-32-33c-44 0-81-29-92-70-23 28-37 64-37 102 0 86 67 156 152 161-49-5-87-46-87-96 0-54 43-97 97-97s96 43 96 97c0 50-38 91-87 96 85-5 152-75 152-161 0-38-14-74-36-102z m-125 231c35 0 64-29 64-64s-29-65-64-65c-36 0-65 29-65 65s29 64 65 64z m161-22c-35 52-94 87-161 87s-127-35-162-87v270c35-52 94-87 162-87 49 0 93 19 127 49h2v1c12 11 23 23 32 37v-270z m-258 248c0 36 29 64 64 64h65c35 0 64-28 64-64-27-20-60-32-96-32s-70 12-97 32z m222 27c-12 40-49 70-93 70h-32-33c-44 0-81-30-92-70-23 28-37 63-37 102 0 86 67 156 152 161-49-5-87-46-87-97 0-53 43-96 97-96s96 43 96 96c0 51-38 92-87 97 85-5 152-75 152-161 0-39-14-74-36-102z m488 296c-107 0-194-87-194-194v-484c0-107 87-194 194-194 48 0 93 19 127 49h2v1c39 36 64 87 64 144v484c0 107-87 194-193 194z m64-130c0-35-29-64-65-64-35 0-64 29-64 64 0 36 29 65 64 65 36 0 65-29 65-65z m-64-709c-37 0-70 12-97 32 0 36 29 65 64 65h65c35 0 64-29 64-65-27-20-60-32-96-32z m125 59c-12 41-49 70-93 70h-32-33c-44 0-81-29-93-70-22 28-36 64-36 102 0 86 67 156 152 161-49-5-87-46-87-96 0-54 43-97 97-97s96 43 96 97c0 50-38 91-87 96 85-5 152-75 152-161 0-38-14-74-36-102z m-125 231c35 0 64-29 64-64s-29-65-64-65c-36 0-65 29-65 65s29 64 65 64z m161-22c-35 52-94 87-161 87-68 0-127-35-162-87v270c35-52 94-87 162-87 48 0 93 19 127 49h2v1c12 11 23 23 32 37v-270z m-258 248c0 36 29 64 64 64h65c35 0 64-28 64-64-27-20-60-32-97-32-36 0-69 12-96 32z m222 27c-12 40-49 70-93 70h-32-33c-44 0-81-30-93-70-22 28-36 63-36 102 0 86 67 156 152 161-49-5-87-46-87-97 0-53 43-96 97-96s96 43 96 96c0 51-38 92-87 97 85-5 152-75 152-161 0-39-14-74-36-102z m-586-616c11-3 23-7 34-9l7 31c-10 2-20 5-31 9l-10-31z m-64 26c10-5 21-10 32-14l12 30c-10 4-20 8-30 13l-14-29z m392 16l12-30c11 4 22 9 32 14l-14 29c-10-5-20-9-30-13z m-190-34l-1-32c5 0 11 0 17 0 6 0 12 0 17 0l-1 32c-11 0-22 0-32 0z m128 14l8-31c11 2 22 5 34 9l-10 31c-11-4-21-7-32-9z m-63-11l3-32c11 1 23 2 34 4l-5 32c-11-2-22-3-32-4z m-135-28c11-2 23-3 34-4l3 32c-10 1-21 2-32 4l-5-32z m38 958l-4 32c-11-1-23-2-34-4l5-32c11 2 22 3 33 4z m-126-31l-12 30c-11-4-21-9-32-14l14-29c10 5 20 9 30 13z m260 59c-11 2-22 3-34 4l-3-32c10-1 21-2 32-4l5 32z m132-43c-10 5-21 10-32 14l-12-30c10-4 20-8 30-13l14 29z m-371 26l9-31c11 4 21 7 32 9l-8 32c-11-3-22-6-33-10z m307 0c-11 3-22 7-34 9l-7-31c10-2 21-5 31-9l10 31z m-138-8l2 32c-12 0-24 0-35 0l1-32c11 0 22 0 32 0z m-32-661l-3-32c6 0 13-1 19-1 6 0 13 1 19 1l-3 32c-11-1-22-1-32 0z m-76-13c12-5 24-10 36-13l8 32c-11 2-21 6-31 10l-13-29z m140 19l8-32c12 3 24 8 36 13l-13 29c-10-4-21-8-31-10z m0 374c11-2 21-6 31-10l13 29c-12 5-24 10-36 13l-8-32z m-140 19l13-29c10 4 21 8 31 11l-8 31c-12-3-24-8-36-13z m73 19l3-32c11 1 22 1 32 0l3 32c-12 1-25 1-38 0z" horiz-adv-x="1000" />

<glyph glyph-name="031-salary" unicode="&#xe821;" d="M513 271l28 29-91 91-29-28c-21 12-43 21-66 27v41h-129v-41c-23-6-46-15-67-27l-28 28-92-91 29-29c-12-21-22-43-28-66h-40v-129h40c6-23 16-46 28-67l-29-28 92-92 28 29c21-12 44-22 67-28v-40h129v40c23 6 45 16 66 28l29-29 91 92-28 28c12 21 21 44 27 67h41v129h-41c-6 23-15 45-27 66z m35-163h-34l-2-13c-6-28-17-55-33-79l-8-11 25-24-46-46-24 24-11-7c-25-16-51-27-79-33l-13-3v-34h-65v34l-13 3c-28 6-55 17-79 33l-11 7-24-24-46 46 24 24-7 11c-16 24-27 51-33 79l-3 13h-34v65h34l3 13c6 28 17 54 33 79l7 11-24 24 46 46 24-25 11 8c24 16 51 27 79 33l13 2v34h65v-34l13-2c28-6 54-17 79-33l11-8 24 25 46-46-25-24 8-11c16-25 27-51 33-79l2-13h34v-65z m-258 226c-106 0-193-87-193-194s87-193 193-193 194 87 194 193-87 194-194 194z m0-355c-89 0-161 72-161 161 0 89 72 162 161 162 89 0 162-73 162-162 0-89-73-161-162-161z m-9 575l-28-28 68-68 28 27c12-6 25-12 38-15v-39h97v39c13 3 26 9 38 15l28-27 68 68-28 28c7 12 12 25 16 38h39v97h-39c-3 13-9 26-16 38l28 27-68 69-28-28c-12 7-25 12-38 16v39h-97v-39c-13-4-26-9-38-16l-28 28-68-69 28-27c-7-12-12-25-16-38h-39v-97h39c4-13 9-26 16-38z m-23 102h33l2 13c4 19 11 36 21 51l8 11-23 23 22 23 24-23 11 7c15 11 32 18 50 22l13 2v33h33v-33l13-2c18-4 35-11 51-22l11-7 23 23 22-23-23-23 8-11c10-15 17-32 21-51l2-12h33v-33h-33l-2-13c-4-18-11-35-21-51l-8-11 23-23-22-23-23 24-11-8c-16-10-33-17-51-21l-13-2v-33h-33v33l-13 2c-18 4-35 11-50 21l-11 8-24-24-22 23 23 23-8 11c-10 16-17 33-21 51l-2 13h-33v32z m178-129c62 0 112 51 112 113 0 63-50 113-112 113-63 0-113-50-113-113 0-62 50-113 113-113z m0 194c44 0 80-36 80-81 0-44-36-80-80-80-45 0-81 36-81 80 0 45 36 81 81 81z m525-387c-4 13-9 26-16 38l28 28-69 68-27-28c-12 7-25 13-38 16v39h-97v-39c-13-3-26-9-38-16l-28 28-68-68 27-28c-6-12-12-25-15-38h-39v-97h39c3-13 9-26 15-38l-27-27 68-69 28 28c12-7 25-12 38-16v-39h97v39c13 4 26 9 38 16l27-28 69 68-28 28c7 12 12 25 16 38h39v0 97h-39z m7-65h-33l-2-13c-4-18-11-35-22-50l-7-11 23-24-23-22-23 23-11-8c-15-10-32-17-51-21l-12-2v-33h-33v33l-13 2c-18 4-35 11-51 21l-11 8-23-23-23 22 24 24-8 11c-10 15-17 32-21 50l-2 13h-33v33h33l2 13c4 18 11 35 21 50l8 11-23 24 22 22 23-23 11 8c16 10 33 17 51 21l13 2v33h32v-33l13-2c19-4 36-11 51-21l11-8 23 23 23-22-23-24 7-11c11-15 18-32 22-50l2-13h33v-33z m-178 129c-62 0-113-50-113-112 0-63 51-113 113-113s113 50 113 113c0 62-50 112-113 112z m0-193c-44 0-80 36-80 81s36 80 80 80 81-36 81-80-36-81-81-81z m-475 32h-8v32h-33v-32h-8c-31 0-56-25-56-56s25-57 56-57h49c13 0 24-11 24-24s-11-24-24-24h-49c-13 0-24 11-24 24v8h-32v-8c0-31 25-56 56-56h8v-33h32v33h9c31 0 56 25 56 56s-25 56-56 56h-49c-13 0-24 11-24 25 0 13 11 24 24 24h49c13 0 24-11 24-24v-8h32v8c0 31-25 56-56 56z m104 452h33v-33h-33v33z m33-33h32v-32h-32v32z m-33-32h33v-32h-33v32z m-32 32h32v-32h-32v32z m387-322h33v-32h-33v32z m0-65h33v-32h-33v32z m33 33h32v-33h-32v33z m-65 0h32v-33h-32v33z" horiz-adv-x="1000" />

<glyph glyph-name="031-settings" unicode="&#xe822;" d="M500 511c-71 0-129-58-129-129s58-129 129-129 129 58 129 129-58 129-129 129z m0-225c-53 0-97 43-97 96 0 54 44 97 97 97s97-43 97-97c0-53-44-96-97-96z m428 209c-7 19-14 37-23 55l51 51-205 205-51-51c-18 9-36 16-55 23v72h-290v-72c-19-7-37-14-55-23l-51 51-205-205 51-51c-9-18-16-36-23-55h-72v-290h72c7-19 14-37 23-55l-51-51 205-205 51 51c7-3 15-7 23-10v-85h32v135l-201 247c-6 7-9 16-9 25v6c0 21 18 39 39 39 12 0 23-5 30-14l85-99h24 48c53 0 97-44 97-97v-81h32v81c0 39-17 73-44 97h238v-102c0-25-8-49-23-68l-26-35v-134h32v85c8 3 16 7 23 10l51-51 205 205-51 51c9 18 17 36 23 55h72v290h-72z m-605-274h-9l-75 88c-14 16-34 25-55 25-2 0-4-1-7-1v131c41 7 73 39 80 80h486c7-41 39-73 80-80v-164c-41-7-73-39-80-79h-420z m-146 276v47h47c-6-23-24-41-47-47z m162 79v32c0 18 14 32 32 32 18 0 32-14 32-32v-32h-64z m97 0v32c0 18 14 32 32 32s32-14 32-32v-32h-64z m96 0v32c0 18 15 32 33 32s32-14 32-32v-32h-65z m97 0v32c0 18 15 32 32 32s33-14 33-32v-32h-65z m148-32h46v-46c-23 5-41 23-46 46z m46-277v-46h-46c5 23 23 40 46 46z m145-30h-64l-3-11c-8-24-18-48-30-71l-5-11 45-45-160-160-45 45-11-5c-5-3-11-6-18-9v4l20 25c19 25 29 56 29 88v102h129v387h-129v32c0 36-29 65-65 65-19 0-36-9-48-22-12 13-29 22-48 22-20 0-37-9-49-22-12 13-29 22-48 22-19 0-37-9-49-22-11 13-29 22-48 22-36 0-64-29-64-65v-32h-162v-254c-19-13-32-35-32-59v-6c0-17 6-33 16-45l194-239v-3c-7 3-13 6-18 9l-11 5-45-45-160 160 46 45-6 11c-12 23-22 47-30 71l-3 11h-64v226h64l3 11c8 25 18 48 30 71l6 11-46 45 160 160 45-45 11 5c23 12 46 22 71 30l11 3v64h226v-64l11-3c25-8 48-18 71-30l11-5 45 45 160-160-45-45 5-11c12-23 22-46 30-71l3-11h64v-226z" horiz-adv-x="1000" />

<glyph glyph-name="031-settings-1" unicode="&#xe823;" d="M933 479c-9 30-21 58-36 86l48 47-183 183-47-48c-28 15-56 27-86 36v67h-258v-67c-30-9-58-21-86-36l-47 48-183-183 48-47c-15-28-27-56-36-86h-67v-258h67c9-30 21-58 36-86l-48-47 183-183 47 48c28-15 56-27 86-36v-67h258v67c30 9 58 21 86 36l47-48 183 183-48 47c15 28 27 56 36 86h67v0 258h-67z m35-226h-60l-3-12c-9-35-23-69-42-100l-6-11 42-42-137-137-42 42-10-6c-32-19-66-33-101-42l-12-3v-60h-194v60l-12 3c-35 9-69 23-100 42l-11 6-42-42-137 137 42 42-6 11c-19 31-33 65-42 100l-3 12h-60v194h60l3 12c9 35 23 69 42 101l6 10-42 42 137 137 42-42 11 6c31 19 65 33 100 42l12 3v60h194v-60l12-3c35-9 69-23 101-42l10-6 42 42 137-137-42-42 6-10c19-32 33-66 42-101l3-12h60v-194z m-468 452c-196 0-355-159-355-355 0-196 159-355 355-355 196 0 355 159 355 355 0 196-159 355-355 355z m0-678c-178 0-323 145-323 323s145 323 323 323 323-145 323-323-145-323-323-323z m160 452c-8 64-62 113-128 113h-64c-66 0-120-49-128-113h-1c-71 0-129-58-129-129s58-129 129-129h32v242c0 53 43 97 97 97h64c54 0 97-44 97-97v-226-16-32c0-18-14-33-32-33h-35c-7 19-25 33-46 33h-32c-27 0-48-22-48-49s21-48 48-48h32c21 0 39 14 46 32h35c35 0 64 29 64 65v32c71 0 129 58 129 129s-58 129-129 129h-1z m-386-201c-19 18-32 43-32 72s13 54 32 72v-144z m65-25c-12 0-22 2-32 6v182c10 4 20 6 32 6v-194z m177-129h-32c-9 0-16 7-16 16s7 16 16 16h32c9 0 16-7 16-16s-7-16-16-16z m210 298c20-18 32-43 32-72s-12-54-32-72v144z m-32-163c-11-4-21-6-33-6v194c12 0 22-2 33-6v-182z m-97 91c0 53-44 97-97 97s-97-44-97-97 44-97 97-97 97 44 97 97z m-161 0c0 36 28 65 64 65s65-29 65-65-29-64-65-64-64 28-64 64z" horiz-adv-x="1000" />

<glyph glyph-name="031-strategy" unicode="&#xe824;" d="M887 76v97h-371v64h145v32h-32v33h32v32h-38c-9 21-33 87-40 226h30v32h-32c0 10 0 21 0 32h32v32h-32v55l32 16v123h-97v-48h-32v48h-97v-123l32-16v-55h-32v-32h32c0-11 0-22 0-32h-32v-32h30c-7-138-31-205-40-226h-38v-32h32v-33h-32v-32h145v-64h-371v-97h-113v-226h258v226h-113v64h339v-64h-113v-226h258v226h-113v64h339v-64h-113v-226h258v226h-113z m-661-32v-162h-194v162h194z m193 774h33v-49h96v49h33v-71l-33-16v-75h-96v75l-33 16v71z m130-226h-98c0 10 0 21 0 32h98c0-11 0-22 0-32z m48-548v-162h-194v162h194z m-194 225v33h113v32h-104c12 33 32 103 38 226h100c7-123 26-193 38-226h-40v-32h49v-33h-194z m565-387h-194v162h194v-162z m-839 16c36 0 65 29 65 65s-29 64-65 64c-35 0-64-29-64-64s29-65 64-65z m0 97c18 0 32-14 32-32s-14-32-32-32c-18 0-32 14-32 32s14 32 32 32z m371 45l-95-142h190l-95 142z m0-58l34-51h-68l34 51z m452 45h-162v-129h162v129z m-33-96h-96v64h96v-64z" horiz-adv-x="1000" />

<glyph glyph-name="031-team" unicode="&#xe825;" d="M1000 273c0 57-32 106-81 130v253c0 107-86 194-193 194s-194-87-194-194v-19c-20 4-41 4-63 1-1 0-2-1-3-1 1 7 2 13 2 19v65c0 26-20 46-45 48-33 50-89 81-149 81-98 0-177-80-177-177v-17c0-36 18-71 48-92v-1c0-40 19-77 49-100v-35l-73-12c-70-12-121-72-121-143v-133h285c-55-21-91-74-91-135v-155h612v155c0 61-36 114-91 135h285v133z m-435 383c0 89 72 162 161 162s161-73 161-162v-242c-3 1-5 2-8 2l-73 12v35c30 23 49 60 49 100l0 103-23-11c0 0-33-15-106-15s-106 15-106 15l-23 11v-52c-10 6-21 11-32 15v27z m103-113c-10 18-24 34-39 48v27c19-5 51-10 97-10s77 5 97 10v-55c0-53-44-96-97-96-6 0-11 0-16 1v24c0 25-18 46-42 51z m28-180c9 21 14 44 14 68v4c5 0 10-1 16-1 17 0 33 4 48 10v-27l-48-145-30 91z m1-106l-44 44c8 7 15 15 21 24l23-68z m104 139l26-4 10-53-82-82 46 139z m-327 210c70 11 138-24 170-86l4-9h10c11 0 19-8 19-19v-61c0-34-11-66-32-91l0 99-22-10c-1 0-37-14-123-14s-122 14-123 14l-22 10v-62c-13 27-19 58-15 88 8 71 64 130 134 141z m-154-229c4-9 8-18 13-27l-29 17 16 10z m-45 9l-49 37v21c15-6 31-10 48-10 11 0 22 2 33 5 0-10 1-20 3-29l-35-24z m66-78l15-10c5-35 22-66 47-88v-37h-66l-14 109 18 26z m74-169l57-45-48-29-43 66 34 8z m21 25v24c19-10 41-15 64-15s45 5 65 15v-24l-65-51-64 51z m149-25l35-8-44-66-48 29 57 45z m-85 66c-62 0-113 51-113 113v75c21-5 58-11 113-11s92 6 113 11v-75c0-62-51-113-113-113z m-355 461v-58c-10 14-16 31-16 49v16c0 80 65 145 145 145 52 0 100-28 126-73l4-8h15c9 0 17-7 17-16v-64c0-11-3-20-6-30-9-4-18-8-27-13l0 52-23-11c0 0-32-15-106-15s-105 15-106 15l-23 11z m32-103v55c20-5 51-10 97-10 46 0 78 5 97 10v-27c-33-31-57-72-63-118-11-4-22-6-34-6-53 0-97 43-97 96z m29-165l39-30-46-28-31 51 38 7z m6-225h-83v48h-32v-48h-65v100c0 55 40 102 95 111l7 2 54-90 20 12 17-26-13-109z m32 0l15 116-23 35 38 23 39-23-23-34 14-117h-60z m193-291h-114v81h-33v-81h-64v123c0 53 36 99 87 110l34 8 68-101 19 11 17-26-14-125z m93 0h-60l14 133-23 35 39 23 39-23-23-35 14-133z m244 123v-123h-64v81h-33v-81h-114l-14 125 17 26 20-11 67 101 34-8c51-11 87-57 87-110z m194 168h-65v48h-32v-48h-274v37c18 16 32 37 40 61l89-89 146 147-11 57 12-2c55-9 95-56 95-111v-100z" horiz-adv-x="1000" />

<glyph glyph-name="031-training" unicode="&#xe826;" d="M871 173h-22c33 26 54 67 54 113v64c0 62-50 113-113 113h-64c-6 0-11-1-16-1v291h32v97h-742v-97h32v-467h-32v-97h377l81-162h155v-177h387v194c0 71-58 129-129 129z m-19-72l-65-28 44 67h11l10-39z m-128 39h69l-35-51-34 51z m6-67l-66 28 10 39h11l45-67z m141 213c0-63-51-113-113-113s-113 50-113 113h76c28 0 55 11 75 31l8 8c17-21 41-34 67-38v-1z m-774 177v-145h216c0-1 0-1 1-2l15-30h-264v467h612v-301c-38-18-64-57-64-102v-64h-131l-50 93c-12 22-34 36-59 36-20 0-38-10-50-24v72h-226z m193-32v-81h-161v81h161z m436 0h64c45 0 81-36 81-81v-30c-18 4-35 15-46 31l-16 24-36-35c-14-14-32-22-52-22h-76v32c0 45 36 81 81 81z m-694 387h678v-32h-678v32z m0-597v32h313l16-32h-329z m484-161h-38l-136 270c-2 5-3 11-3 16v2c0 19 15 34 34 34 13 0 24-7 30-18l113-212v-92z m-17 193h118c2-11 6-22 11-32h-112l-17 32z m34-64h117c5-6 11-11 17-16h-125l-9 16z m435-307h-65v65h65v-65z m0 97h-65v65h-32v-162h-226v178h-97v80h93l-15-57 132-57 132 57-14 57c51-2 92-45 92-96v-65z m-645 613v32h-34c-2 11-6 20-12 29l24 24-23 22-24-24c-8 6-18 10-28 12v34h-32v-34c-11-2-20-6-29-12l-24 24-23-22 25-24c-6-9-10-18-12-29h-34v-32h34c2-10 6-20 12-28l-25-24 23-23 24 24c9-6 18-10 29-12v-34h32v34c10 2 20 6 28 12l24-24 23 23-24 24c6 8 10 18 12 28h34z m-113-32c-27 0-49 21-49 48s22 49 49 49 48-22 48-49-22-48-48-48z m242 0h-97v-97h97v97z m-33-65h-32v32h32v-32z" horiz-adv-x="1000" />

<glyph glyph-name="031-vacations" unicode="&#xe827;" d="M1000-69v32h-81v48h33v33h-65v35c19 6 32 24 32 45v81h-96v-81c0-21 13-39 32-45v-35h-65v-33h33v-48h-186l-76 91-25-21 86-102h7v-49h-113v194h194v64h32v16c0 44-12 85-32 121v509h-97v16c0 26-22 48-48 48s-49-22-49-48v-16h-322v16c0 26-22 48-49 48s-48-22-48-48v-16h-97v-710h484v-194h-81v-32h597v32h-32v49h32z m-580 242c5 98 57 163 80 187 23-24 75-89 80-187h-160z m32 258v-37c-11-3-22-6-33-10v47h-129v-97h46c-44-41-73-98-77-161h-162v419h516v-222c-10 6-21 10-32 14v47h-129z m96-33v-4c-15 3-31 4-48 4-5 0-11 0-16 0v0h16 48z m-161 0v-28c-2-1-5-2-7-4h-57v32h64z m72-36c-28-35-67-100-71-189h-97c7 94 77 171 168 189z m218-254h-161v32h161v-32z m-65 65c-4 89-42 154-71 189 91-18 161-95 168-189h-97z m-64 629c0 9 8 16 17 16s16-7 16-16v-97c0-9-8-16-16-16s-17 7-17 16v97z m-419 0c0 9 7 16 16 16 9 0 16-7 16-16v-97c0-9-7-16-16-16-9 0-16 7-16 16v97z m355-694h-452v645h65v-48c0-27 22-49 48-49s49 22 49 49v48h322v-48c0-27 22-49 49-49s48 22 48 49v48h64v-433c-10 11-21 21-32 30h0v274h-580v-484h193 145 81v-32z m371 65h32v-49c0-9-7-16-16-16-9 0-16 7-16 16v49z m0-162h32v-48h-32v48z m81-129h-275v49h275v-49z m-807 581h129v97h-129v-97z m32 64h65v-32h-65v32z m129-64h129v97h-129v-97z m33 64h64v-32h-64v32z m258 33h-129v-97h129v97z m-33-65h-64v32h64v-32z m-419-161h129v97h-129v-97z m32 64h65v-32h-65v32z m-32-193h129v97h-129v-97z m32 64h65v-32h-65v32z" horiz-adv-x="1000" />

<glyph glyph-name="031-administrator" unicode="&#xe828;" d="M903 142v289c0 115-94 209-209 209-17 0-33-2-49-5v167h-161-16-62c-17 29-49 48-83 48-35 0-67-19-84-48h-62-16-161v-839h387v-113h613v155c0 63-39 117-97 137z m-209 466c97 0 177-79 177-177v-280l-81 18v41c30 27 49 65 49 108l0 121-23-10c0 0-37-14-122-14s-123 14-123 14l-23 10v-121c0-43 19-82 49-108v-41l-81-18v199 81c0 98 80 177 178 177z m-37-634l-91 91 13 67 23 5 55-163z m-76 344v75c21-5 57-11 113-11 55 0 91 6 112 11v-75c0-62-50-113-112-113-63 0-113 51-113 113z m48-159v29c20-10 41-15 65-15s45 5 64 15v-29l-64-194-65 194z m156-22l23-5 13-67-91-91 55 163z m-301 632h129v-145c-11-5-22-10-32-17v130h-97v32z m-290 0h65l5 10c10 24 33 39 59 39 25 0 48-15 59-39l4-10h66v-64h-258v64z m193-764v-10h-355v774h129v-32h-96v-710h324c-1-7-2-14-2-22z m-290 55v645h64v-32h323v32h64v-123c-12-12-23-26-32-40v98h-387v-290h355v-35c-5 2-11 3-16 3-27 0-49-22-49-49 0-9 3-17 7-24l-39-59c-5 2-10 3-16 3s-11-1-16-3l-39 59c4 7 7 15 7 24 0 27-22 49-49 49s-48-22-48-49c0-12 5-23 12-31l-42-53c-6 2-12 4-19 4-26 0-48-22-48-49s22-48 48-48c27 0 49 22 49 48 0 9-2 16-6 23l47 59c2-1 5-1 7-1 6 0 11 1 16 3l40-59c-5-7-7-16-7-25 0-26 21-48 48-48 27 0 48 22 48 48 0 9-2 18-7 25l40 59c5-2 10-3 16-3 5 0 11 1 16 3v-82c-40-14-71-44-86-82h-301z m387 548v-177-49h-323v226h323z m0-339c0-9-7-16-16-16s-16 8-16 16c0 9 7 17 16 17s16-8 16-17z m-97-129c0-9-7-16-16-16-9 0-16 7-16 16s7 16 16 16c9 0 16-7 16-16z m-97 129c0-9-7-16-16-16s-16 8-16 16c0 9 7 17 16 17s16-8 16-17z m-96-129c0-9-8-16-17-16-8 0-16 7-16 16s8 16 16 16c9 0 17-7 17-16z m774-258h-65v65h-32v-65h-355v65h-32v-65h-65v123c0 53 36 99 88 110l38 9-14-70 163-162 162 162-14 70 38-9c52-11 88-57 88-110v-123z m-645 705l-129-172h258l-129 172z m0-54l64-86h-129l65 86z" horiz-adv-x="1000" />

<glyph glyph-name="031-analysis" unicode="&#xe829;" d="M936 189c-30 0-55-21-63-49h-202l-42-41v299h161c36 0 65 29 65 65 0 36-29 64-65 64h-138l64 65h157c8-28 33-48 63-48 35 0 64 29 64 64 0 36-29 65-64 65-30 0-55-21-63-49h-170l-97-97h-21c27 24 44 59 44 97 0 71-58 129-129 129-34 0-65-13-88-34l-83 83h-202c-7 27-32 48-62 48-36 0-65-29-65-64 0-36 29-65 65-65 30 0 55 21 62 48h189l76-75c-13-20-21-44-21-70 0-38 17-73 44-97h-205c-36 0-65-28-65-64 0-36 29-65 65-65h161v-57l-71-72h-173c-7 28-32 49-62 49-36 0-65-29-65-65 0-35 29-64 65-64 30 0 55 20 62 48h186l58 58v-358l-42 42h-202c-7 28-32 48-62 48-36 0-65-29-65-64s29-65 65-65c30 0 55 21 62 49h189l55-55v-42h258v203l55 55h189c8-28 33-48 63-48 35 0 64 29 64 64 0 36-29 65-64 65z m0 451c17 0 32-14 32-32s-15-32-32-32-33 14-33 32 15 32 33 32z m-871 113c-18 0-33 15-33 33 0 17 15 32 33 32 17 0 32-15 32-32 0-18-15-33-32-33z m0-532c-18 0-33 14-33 32 0 18 15 33 33 33 17 0 32-15 32-33 0-18-15-32-32-32z m0-290c-18 0-33 14-33 32s15 32 33 32c17 0 32-14 32-32s-15-32-32-32z m645 564h80c18 0 33-14 33-32s-15-32-33-32h-80v64z m-307 129c0 54 44 97 97 97s97-43 97-97-44-97-97-97-97 44-97 97z m128-129l-31-38-31 38h62z m-241-64h-80c-18 0-33 14-33 32s15 32 33 32h80v-64z m194-549h-81v32h81v-32z m113 0h-81v32h81v-32z m0 65h-81v209h-32v-209h-81v274h194v-274z m0 484v-178h-194v178h-80v64h105l72-90 72 90h105v-64h-80z m339-339c-18 0-33 14-33 32s15 32 33 32 32-14 32-32-15-32-32-32z" horiz-adv-x="1000" />

<glyph glyph-name="031-analysis-1" unicode="&#xe82a;" d="M194 689h-129v-129h129v129z m-33-97h-64v64h64v-64z m33-65h-129v-129h129v129z m-33-96h-64v64h64v-64z m33-65h-129v-129h129v129z m-33-97h-64v65h64v-65z m-64-96h387v-33h-387v33z m516 290c0 36-29 64-65 64-35 0-64-28-64-64 0-36 29-65 64-65 36 0 65 29 65 65z m-65-32c-17 0-32 14-32 32s15 32 32 32c18 0 33-14 33-32s-15-32-33-32z m0 258c-124 0-225-102-225-226 0-125 101-226 225-226 125 0 226 101 226 226 0 124-101 226-226 226z m0-420c-71 0-133 39-167 97h335c-34-58-96-97-168-97z m-116 129l116 195 117-195h-117-116z m116 258l-170-285c-15 28-23 59-23 92 0 107 87 194 193 194s194-87 194-194c0-33-8-64-23-92l-171 285z m427-500l-121 121 28 29-22 23-29-29-26 26c21 41 34 88 34 137 0 155-122 281-274 289v1h-49v97h-451v-97h-65v-903h581v325c37 4 72 15 104 32l26-26-29-29 23-23 29 29 122-122c16-16 37-25 60-25 46 0 84 38 84 85 0 22-9 44-25 60z m-878 662h387v-65h-387v65z m177-936h-80v194h80v-194z m113 0h-81v194h81v-194z m161 0h-129v226h-258v-226h-129v839h384c-22-11-43-26-61-42v10h-129v-129h49c-4-11-7-22-9-33h-40v-129h40c2-11 5-21 9-32h-49v-129h129v10c51-46 119-74 193-74v-291z m-290 710v64h65v-11c-14-16-25-34-34-53h-31z m65-311v-12h-65v65h31c9-19 20-37 34-53z m-63 150h-2v32 32h2c-1-10-2-21-2-32s1-22 2-32z m288-226c-142 0-258 116-258 258 0 142 116 258 258 258 143 0 259-116 259-258 0-142-116-258-259-258z m186-1l-21 20c29 20 54 45 74 74l21-21-74-73z m182-160c-14 0-28 5-37 15l-122 122 74 74 121-122c10-10 16-23 16-37 0-29-24-52-52-52z" horiz-adv-x="1000" />

<glyph glyph-name="031-balance" unicode="&#xe82b;" d="M500 608c-53 0-97-43-97-97s44-96 97-96 97 43 97 96-44 97-97 97z m0-161c-36 0-64 29-64 64 0 36 28 65 64 65s65-29 65-65c0-35-29-64-65-64z m500 42v45l-78 26h-212v16h-45c-1 2-2 4-3 7l32 31-91 91-32-31c-2 1-4 2-6 3v44h-17v51l-26 78h-44l-26-78v-51h-16v-44c-3-1-5-2-7-3l-32 31-91-91 32-31c-1-3-2-5-3-7h-45v-16h-212l-78-26v-45l78-26h44l-122-320v-35c0-27 22-48 48-48h258c27 0 49 21 49 48v35l-122 320h57v-16h45c1-2 2-5 3-7l-32-31 91-92 32 32c2-1 4-2 7-3v-28-16-355h-97c-27 0-49-22-49-49v-48h420v48c0 27-22 49-49 49h-96v355 16 28c2 1 4 2 6 3l32-32 91 92-32 31c1 2 2 5 3 7h45v16h57l-122-320v-35c0-27 22-48 49-48h258c26 0 48 21 48 48v35l-122 320h44l78 26z m-64 32l29-10-29-10v20z m-871-20l-30 10 30 10v-20z m258-393c0-9-8-16-17-16h-258c-8 0-16 7-16 16v16h291v-16z m-8 48h-275l116 307h43l116-307z m-25 339h-193v32h193v-32z m210 320l10-29h-20l10 29z m-16-62h32v-32h-32v32z m177-839c9 0 16-7 16-16v-16h-354v16c0 9 7 16 16 16h322z m-193 33v355h64v-355h-64z m209 532h-35l-3-11c-3-8-6-16-10-24l-6-10 25-25-45-46-25 25-11-5c-8-4-16-8-23-10l-12-4v-35h-64v35l-11 4c-8 2-16 6-24 10l-11 5-25-25-45 46 25 25-6 10c-4 8-7 16-9 24l-4 11h-35v65h35l4 11c2 8 5 16 9 23l6 11-25 25 45 46 25-26 11 6c8 4 16 7 23 10l12 3v36h64v-36l12-3c7-3 15-6 23-10l11-5 25 25 45-46-25-25 6-11c4-7 7-15 10-23l3-11h35v-65z m291-371c0-9-7-16-16-16h-258c-9 0-17 7-17 16v16h291v-16z m-7 48h-276l116 307h43l117-307z m-58 339h-193v32h193v-32z" horiz-adv-x="1000" />

<glyph glyph-name="031-briefcase" unicode="&#xe82c;" d="M790 527v49c0 23-6 46-16 67 10 10 16 25 16 41 0 18-8 35-23 47l-122 95v24h-32v-40l135-105c6-5 10-13 10-21 0-15-12-27-27-27h-7c-6 0-11 1-16 5l-57 43h-38v-113c0-9-7-16-16-16-9 0-16 7-16 16v48h-33v-48c0-9-7-16-16-16-9 0-16 7-16 16v48h-32v-48c0-9-7-16-16-16s-16 7-16 16v48h-33v-48c0-9-7-16-16-16-9 0-16 7-16 16v126l32 97v35h-32v-30l-32-96v-3c-80 0-145-65-145-145v-49h-210v-596h403v-81h194v81h403v596h-210z m-145 142l44-33c10-8 22-12 35-12h7c5 0 10 1 15 2 8-15 12-33 12-50v-49h-48v33c0 39-28 71-65 79v30z m-242-125c13 0 24 4 33 12 8-8 19-12 32-12 12 0 24 4 32 12 9-8 20-12 32-12 13 0 24 4 33 12 8-8 19-12 32-12 27 0 48 21 48 48v13c19-7 32-24 32-45v-33h-354v33c0 21 13 38 32 45v-13c0-27 22-48 48-48z m-161 32c0 62 51 113 113 113v-50c-37-8-65-40-65-79v-33h-48v49z m161-613h-371v361l77-38h52v-49c0-27 22-48 49-48h32c27 0 48 21 48 48v49h94c-48-29-84-74-100-130-24-3-42-23-42-48 0-27 22-48 48-48 27 0 49 21 49 48 0 18-10 33-24 41 23 72 84 124 158 134l-103-88 33-185v-47z m-145 290v-16c0-9-7-16-16-16h-32c-9 0-16 7-16 16v16h64z m-64 33v64h64v-64h-64z m112-178c0-9-7-16-16-16-9 0-16 7-16 16 0 9 7 16 16 16 9 0 16-7 16-16z m259-226h-129v113h129v-113z m2 145h-134l-28 156 79 67v-80c-19-7-32-25-32-46 0-26 21-48 48-48 27 0 48 22 48 48 0 21-13 39-32 46v80l79-67-28-156z m-67 113c9 0 16-7 16-16s-7-16-16-16c-9 0-16 7-16 16s7 16 16 16z m468-177h-371v47l33 185-103 89c74-11 135-63 158-135-14-8-24-23-24-41 0-27 22-48 49-48s48 21 48 48c0 25-18 45-42 48-16 56-52 101-100 130h94v-49c0-27 21-48 48-48h32c27 0 49 21 49 48v49h52l77 38v-361z m-274 145c0 9 7 16 16 16s16-7 16-16c0-9-7-16-16-16s-16 7-16 16z m113 145v-16c0-9-8-16-17-16h-32c-9 0-16 7-16 16v16h65z m-65 33v64h64v-64h-64z m226 74l-85-42h-44v64h-129v-64h-420v64h-129v-64h-44l-85 42v135h936v-135z" horiz-adv-x="1000" />

<glyph glyph-name="031-contract" unicode="&#xe82d;" d="M306 640c27 0 49 22 49 49s-22 48-49 48-48-22-48-48 22-49 48-49z m0 65c9 0 17-7 17-16 0-9-8-16-17-16s-16 7-16 16c0 9 8 16 16 16z m97 81h-193v-194h193v194z m-32-162h-129v129h129v-129z m-306-64h483v-33h-483v33z m0-65h483v-32h-483v32z m0-64h483v-33h-483v33z m0-65h483v-32h-483v32z m0-64h161v-33h-161v33z m193 0h32v-33h-32v33z m145-226h145v-32h-145v32z m597 322v162h-118l21 155c0 3 0 7 0 10v44c0 45-36 81-80 81-45 0-81-36-81-81v-44c0-3 0-7 1-10l20-155h-21v161h-65v65h-138l-65 64h-474v-871h65v-65h64v-64h613v290h194c35 0 64 29 64 65 0 35-29 64-64 64h-194v129h258z m-226 371c0 27 22 49 49 49 26 0 48-22 48-49v-44c0-2 0-4 0-6l-30-224h-37l-29 224c-1 2-1 4-1 6v44z m-97-80h33v-129h-33v129z m0-291h33v-129h-33v129z m-32 355v-193-162-129h-32v443l-42 41h74z m-161 42l74-74h-74v74z m-452-784v807h420v-129h129v-420h-150l-107-64 107-65h150v-129h-549z m404 223v-59l-50 30 50 29z m-339-287v32h516v161h32v-193h-548z m613-65h-549v32h516v226h33v-258z m209 355h17c17 0 32-14 32-32 0-18-15-32-32-32h-17v64z m-64 0h32v-64h-32v64z m-32 0v-64h-355v64h355z m-146 194v96h91l4-32h-30v-32h161v32h-30l5 32h90v-96h-291z" horiz-adv-x="1000" />

<glyph glyph-name="031-database" unicode="&#xe82e;" d="M871 173h-22c33 26 54 67 54 113v64c0 62-50 113-113 113h-64c-17 0-34-4-49-11v140h-32v64h32v194h-677v-194h32v-64h-32v-194h32v-64h-32v-194h560c-27-23-44-58-44-96v-194h113 16 226 16 113v194c0 71-58 129-129 129z m-19-72l-65-28 44 67h11l10-39z m-128 39h69l-35-51-34 51z m6-67l-66 28 10 39h3 8l45-67z m141 213c0-63-51-113-113-113-62 0-113 50-113 113h76c28 0 55 11 75 31l8 8c17-21 41-34 67-38v-1z m-145 145h64c45 0 81-36 81-81v-30c-18 4-35 15-46 31l-16 24-36-35c-14-14-32-22-52-22h-76v32c0 45 36 81 81 81z m-694 387h613v-129h-613v129z m516-194v-32h-32v32h-32v-32h-32v32h-33v-32h-32v32h-32v-32h-32v32h-33v-32h-32v32h-32v-32h-32v32h-33v-32h-32v32h-32v-32h-32v64h548v-64h-32v32h-33z m-516-64h613v-129h-613v129z m516-194v-32h-32v32h-32v-32h-32v32h-33v-32h-32v32h-32v-32h-32v32h-33v-32h-32v32h-32v-32h-32v32h-33v-32h-32v32h-32v-32h-32v64h548v-48-16h-32v32h-33z m-516-193v129h581v-16c0-35 12-67 32-92v-21h-613z m581-291h-65v65h65v-65z m355 0h-65v65h65v-65z m0 97h-65v65h-32v-162h-226v162h-32v-65h-65v65c0 51 41 94 93 96l-15-57 132-57 132 57-14 57c51-2 92-45 92-96v-65z m-129 548h32v-32h-32v32z m0 65h32v-32h-32v32z m0 64h32v-32h-32v32z m-65 0h33v-32h-33v32z m-64 0h32v-32h-32v32z m-387-677h32v-32h-32v32z m0 65h32v-33h-32v33z m0 64h32v-32h-32v32z m129-129h32v-32h-32v32z m-65 0h32v-32h-32v32z" horiz-adv-x="1000" />

<glyph glyph-name="031-email" unicode="&#xe82f;" d="M629 683v161h-32v-343l-97-72-97 72v343h-32v-161h-371v-678h274v33h-219l328 327 117-90 117 90 328-327h-219v-33h274v678h-371z m-597-623v574l325-249-325-325z m936 0l-325 325 182 140-19 25-306-234-436 334h307v-125l-55 42-19-26 203-153 203 153-19 26-55-42v125h307l-88-67 20-26 100 77v-574z m-484 478h32v-65h-32v65z m0 241h32v-209h-32v209z m145-786v190h-32v-214l-97-73-97 73v214h-32v-190l-55 41-19-25 203-153 203 153-19 25-55-41z m-145 12h32v-64h-32v64z m0 113h32v-80h-32v80z m0 726h32v-32h-32v32z" horiz-adv-x="1000" />

<glyph glyph-name="031-employee" unicode="&#xe830;" d="M742 334c0 71-58 129-129 129h-22c33 27 54 67 54 113v81c0 53-43 96-97 96h-96c-54 0-97-43-97-96v-81c0-46 21-86 54-113h-22c-71 0-129-58-129-129v-194h113 16 226 16 113v194z m-148 58l-65-28 44 67h11l10-39z m-94-13l-34 52h68l-34-52z m-113 277c0 36 29 65 65 65h96c36 0 65-29 65-65v-22l-9 15c-9 15-25 24-42 24h-10c-18 0-35-11-43-27-3-7-14-7-18 0-8 16-25 27-43 27h-10c-17 0-33-9-42-24l-9-15v22z m0-84l37 61c3 4 8 7 14 7h10c6 0 12-3 14-9 7-14 22-23 38-23 16 0 31 9 38 23 3 6 8 9 14 9h10c6 0 11-3 14-7l37-61c-2-61-52-109-113-109s-110 48-113 109z m29-141h11l45-67-66 28 10 39z m-61-258h-65v32h65v-32z m355 0h-65v32h65v-32z m0 64h-65v97h-32v-161h-226v161h-32v-97h-65v97c0 52 41 94 93 96l-15-57 132-57 132 57-14 57c51-2 92-44 92-96v-97z m-549 290c89 0 162 73 162 162s-73 161-162 161-161-72-161-161 72-162 161-162z m0 291c71 0 129-58 129-129 0-71-58-129-129-129-71 0-129 58-129 129 0 71 58 129 129 129z m0-645c-89 0-161-73-161-162s72-161 161-161 162 72 162 161-73 162-162 162z m0-291c-71 0-129 58-129 129 0 71 58 129 129 129 71 0 129-58 129-129 0-71-58-129-129-129z m678 645c89 0 161 73 161 162s-72 161-161 161-162-72-162-161 73-162 162-162z m0 291c71 0 129-58 129-129 0-71-58-129-129-129-71 0-129 58-129 129 0 71 58 129 129 129z m0-645c-89 0-162-73-162-162s73-161 162-161 161 72 161 161-72 162-161 162z m0-291c-71 0-129 58-129 129 0 71 58 129 129 129 71 0 129-58 129-129 0-71-58-129-129-129z m55 162l25 24-23 23-25-24c-5 3-10 5-16 7v34h-32v-34c-6-2-12-4-17-7l-24 24-23-23 24-24c-3-5-5-11-6-17h-35v-32h35c1-6 3-11 6-16l-24-25 23-23 24 25c5-3 11-5 17-7v-35h32v35c6 2 11 4 16 7l25-25 23 23-25 25c3 5 5 10 7 16h35v32h-35c-2 6-4 12-7 17z m-55-65c-18 0-33 14-33 32s15 33 33 33 32-15 32-33-14-32-32-32z m-726 597h97v64h64v97h-64v65h-97v-65h-65v-97h65v-64z m-32 97v32h64v64h32v-64h65v-32h-65v-65h-32v65h-64z m774-33h-32c-9 0-16 8-16 17h-33c0-27 22-49 49-49v-32h32v32c27 0 48 22 48 49s-21 48-48 48h-32c-9 0-16 7-16 16 0 9 7 16 16 16h32c9 0 16-7 16-16h32c0 27-21 48-48 48v33h-32v-33c-27 0-49-21-49-48s22-48 49-48h32c9 0 16-8 16-17s-7-16-16-16z m-659-548c-12 0-24-4-35-11-10 7-22 11-35 11-34 0-61-28-61-62 0-16 6-32 18-44l78-78 79 78c12 12 18 28 18 44 0 34-28 62-62 62z m21-83l-56-56-56 56c-5 6-8 13-8 21 0 17 13 30 29 30 8 0 16-3 21-9l14-14 14 14c6 6 14 9 21 9 17 0 30-14 30-30 0-8-3-15-9-21z" horiz-adv-x="1000" />

<glyph glyph-name="031-evaluation" unicode="&#xe831;" d="M936 623v72l-155 155h-458v-226h-242c-45 0-81-36-81-80v-517c0-44 36-80 81-80h193v-65h-64v-32h580v32h-64v65h193c45 0 81 36 81 80v517c0 39-28 71-64 79z m-162 188l123-122h-123v122z m-419 7h387v-162h161v-516h-548v678z m339-936h-388v65h388v-65z m274 145c0-26-22-48-49-48h-838c-27 0-49 22-49 48v17h936v-17z m0 49h-936v468c0 26 22 48 49 48h242v-484h613v481c18-7 32-24 32-45v-468z m-678 371c0 62-50 113-113 113-62 0-112-51-112-113 0-62 50-113 112-113 63 0 113 51 113 113z m-96 32c0-9-8-16-17-16-8 0-16 7-16 16 0 9 8 16 16 16 9 0 17-7 17-16z m-17-113c-11 0-21 3-31 7 3 14 16 25 31 25s29-11 32-25c-10-5-20-7-32-7z m0 65c-26 0-48-16-58-39-14 15-22 34-22 55 0 41 31 75 71 79-22-4-39-24-39-47 0-27 22-48 48-48 27 0 49 21 49 48 0 23-17 43-39 47 40-4 71-38 71-79 0-21-8-40-22-55-10 23-32 39-59 39z m-112-210c0-62 50-113 112-113 63 0 113 51 113 113 0 62-50 113-113 113-62 0-112-51-112-113z m112-81c-11 0-21 3-31 7 3 15 16 26 31 26s29-11 32-26c-10-4-20-7-32-7z m17 113c0-9-8-16-17-16-8 0-16 7-16 16 0 9 8 16 16 16 9 0 17-7 17-16z m-26 48c-22-5-39-24-39-48 0-26 22-48 48-48 27 0 49 22 49 48 0 24-17 43-39 48 40-5 71-39 71-80 0-21-8-40-22-55-10 23-32 39-59 39-26 0-48-16-58-39-14 15-22 34-22 55 0 41 31 75 71 80z m413 421v31h-162v-161h162v91l57 41-18 26-39-28z m-33-23l-30-21-23 22-22-23 41-42 34 25v-36h-96v97h96v-22z m33-170v31h-162v-162h162v91l57 41-18 27-39-28z m-33-23l-30-22-23 23-22-23 41-42 34 24v-35h-96v96h96v-21z m33-171v31h-162v-161h162v91l57 41-18 26-39-28z m-33-23l-30-22-23 23-22-23 41-42 34 25v-36h-96v97h96v-22z m97 312h194v-32h-194v32z m0-193h194v-33h-194v33z m0-194h194v-32h-194v32z m0 65h194v-33h-194v33z m0 193h194v-32h-194v32z m0 194h65v-33h-65v33z" horiz-adv-x="1000" />

<glyph glyph-name="017-analysis" unicode="&#xe832;" d="M566 663c-48 48-112 74-180 74s-131-26-179-74c-98-99-98-260 0-358 48-48 112-74 179-74s132 26 180 74c47 48 74 111 74 179s-27 131-74 179z m-338-20c42 42 98 65 158 65 60 0 117-23 159-65 34-34 55-76 63-122l-79-77c-7 4-16 7-25 7-18 0-34-9-43-23l-115 36c0 1 0 1 0 1 0 29-23 52-52 52-28 0-51-23-51-52 0-9 2-18 7-25l-61-63c-46 85-33 194 39 266z m299-244c0-12-11-22-23-22-12 0-23 10-23 22s11 23 23 23c12 0 23-10 23-23z m-210 66c0-12-10-22-23-22s-22 10-22 22 10 23 22 23 23-10 23-23z m228-140c-42-42-99-66-159-66s-116 24-158 66c-9 9-16 17-23 27l65 68c8-4 16-6 24-6 18 0 34 9 43 23l116-37c0 0 0 0 0-1 0-28 23-51 51-51 28 0 51 23 51 51 0 9-2 17-6 25l62 60c0-60-23-117-66-159z m-286 306l19-22c44 39 107 51 163 31l10 28c-66 23-140 9-192-37z m229 19l-15-24c7-5 15-10 22-16l18 22c-8 7-16 13-25 18z m-67-328c-33-7-66-4-97 8l-10-27c23-9 48-14 72-14 14 0 27 1 41 4l-6 29z m327-70l-21-21-52 56c61 90 76 202 44 303l41 40c8-4 16-6 25-6 28 0 51 23 51 51 0 9-2 17-5 24l88 86v-44h29v93h-93v-29h43l-87-85c-8 4-17 7-26 7-29 0-52-23-52-52 0-9 3-17 7-25l-32-31c-17 41-42 79-75 112-136 136-357 136-494 0-121-121-134-311-39-447l-25-25c-7 4-15 6-24 6-28 0-51-23-51-51s23-52 51-52c29 0 52 23 52 52 0 9-3 18-7 25l21 22c7-8 15-16 22-24 68-68 158-102 247-102 69 0 138 20 197 60l52-56-22-21 252-252 135 135-252 251z m37 446c12 0 22-10 22-23 0-12-10-22-22-22s-23 10-23 22c0 13 10 23 23 23z m-734-507c-12 0-22 10-22 23 0 12 10 22 22 22s23-10 23-22c0-13-10-23-23-23z m109 66c-125 125-125 328 0 453 62 63 144 94 226 94 82 0 165-31 227-94 125-124 125-328 0-453-125-125-328-125-453 0z m446-45c10 8 19 16 27 25 9 8 17 17 24 26l49-52-51-51-49 52z m259-305l-211 211 94 93 211-210-94-94z m-117 262l-41-41 20-20 21 21 79-80 21 20-100 100z m104-145l21 21 21-22-20-20-22 21z m-696 96h29v-32h-29v32z m0-176h29v-32h-29v32z m238 115h29v-31h-29v31z m413 260h29v-32h-29v32z m33 250h29v-31h-29v31z m96-133h29v-31h-29v31z" horiz-adv-x="1000" />

<glyph glyph-name="018-businessman-1" unicode="&#xe833;" d="M776 297c-25 32-55 60-90 82l-47 71c17 14 33 30 46 48 21 29 34 65 43 100 7 27 12 56 8 85-2 11-5 22-11 32-12 24-31 34-40 37-30 40-60 65-97 80-95 39-196 13-259-67-44-56-114-88-115-88l-30-14 30-13c22-9 44-17 65-23 0 0 0 0 0 0 0-72 34-136 86-177l-47-71c-98-62-160-171-160-291v-238h689v238c0 76-25 148-71 209z m-112 64l-108-121-36 64 103 118 41-61z m-135-132c-19 0-39 0-54 0l27 47 27-47z m-106 189c25-10 51-15 79-15 28 0 54 5 79 15l-79-91-79 91z m60-218c13 0 31 0 56 1v-194l-37-36-37 36v193c5 0 10 0 18 0z m-229 466c27 15 67 43 98 82 54 69 143 92 225 57 33-13 60-36 87-74l3-4 6-1c1 0 17-4 27-25 10-18 15-53-5-114-10 33-25 76-44 96l-8 8-10-6c0-1-42-28-114-42-60-13-153-18-265 23z m54-46c90-22 166-16 219-5 54 11 92 29 110 39 18-28 34-87 39-114-32-66-100-108-174-108-105 0-191 84-194 188z m73-198l104-118-37-64-107 121 40 61z m319-543v198h-28v-198h-339v198h-29v-198h-118v209c0 103 51 197 132 256l118-134v-216l66-64 66 64v216l119 134c80-59 131-153 131-256v-209h-118l0 0z m35 386l-23-18c23-29 38-62 47-98l28 6c-10 40-27 77-52 110z m-650 239h28v-33h-28v33z m-77-224h29v-33h-29v33z m77-163h28v-33h-28v33z m-64-189h29v-33h-29v33z m128 720h29v-33h-29v33z m-128 112h29v-33h-29v33z m167 79h29v-33h-29v33z m703-335h28v-33h-28v33z m72-224h29v-33h-29v33z m-72-163h28v-33h-28v33z m63-189h29v-33h-29v33z m-128 720h29v-33h-29v33z m128 112h29v-33h-29v33z m-167 79h29v-33h-29v33z m-194-662h91v-29h-91v29z m-275 0h91v-29h-91v29z" horiz-adv-x="1000" />

<glyph glyph-name="019-meeting" unicode="&#xe834;" d="M500 650c-162 0-294-132-294-295 0-162 132-294 294-294 162 0 294 132 294 294s-132 295-294 295z m0-560c-146 0-266 119-266 265s120 266 266 266 266-119 266-266-119-265-266-265z m4 510l0-29c61-1 119-28 159-74l22 19c-46 52-111 83-181 84z m208-122l-25-14c4-8 8-15 12-23l26 11c-4 9-8 18-13 26z m-180-336c-11-2-21-3-32-3-42 0-83 13-118 36l-16-25c40-26 86-39 134-39 12 0 24 0 36 2l-4 29z m-203 81l-23-17c7-8 13-16 21-23l20 20c-6 6-12 13-18 20z m286 627h-230v-85h58c-8-11-13-26-13-41 0-39 31-71 70-71 39 0 71 32 71 71 0 15-5 30-14 41h58v85l0 0z m-115-168c-23 0-42 19-42 42 0 23 19 41 42 41s42-18 42-41c0-23-19-42-42-42z m86 112h-172v27h172v-27z m-29-859c9 11 14 26 14 41 0 39-32 71-71 71s-70-32-70-71c0-15 5-30 13-41h-58v-85h230v85h-58z m-57 83c23 0 42-19 42-42 0-23-19-41-42-41s-42 18-42 41c0 23 19 42 42 42z m86-139h-172v27h172v-27z m329 586v-58c-11 8-26 14-41 14-39 0-71-32-71-71 0-39 32-71 71-71 15 0 30 6 41 14v-58h85v230h-85z m-41-157c-23 0-42 19-42 42s19 42 42 42c23 0 41-19 41-42s-18-42-41-42z m97-44h-27v172h27v-172z m-845 157c-15 0-30-6-41-14v58h-85v-230h85v58c11-8 26-14 41-14 39 0 71 32 71 71s-32 71-71 71z m-70-157h-27v172h27v-172z m70 44c-23 0-41 19-41 42s18 42 41 42c23 0 42-19 42-42 0-23-19-42-42-42z m647 477l-60-60 41-41c-15-2-29-9-40-20-27-27-27-72 0-100 14-13 32-20 50-20s36 7 50 20v0c11 11 18 25 20 40l41-41 60 60-162 162z m21-200c-17-16-43-16-59 0-16 16-16 42 0 59 8 8 19 12 29 12s22-4 30-12l0 0c16-16 16-43 0-59z m20 79c0 0 0 0 0 0 0 0 0 0 0 0l-61 61 19 19 122-121-19-20-61 61z m-528-628c27 27 27 72 0 100-14 13-31 20-50 20s-37-7-50-20v0c-11-11-18-25-20-39l-41 40-60-59 163-163 59 60-40 41c14 2 28 9 39 20z m-80 79l0 0c17 17 43 17 59 0 17-16 17-42 0-59-16-16-42-16-59 0l0 0c-16 17-16 43 0 59z m41-140l-19-19-122 122 19 19 61-61c0 0 0 0 0 0 0 0 0 0 0 0l61-61z m628 162l-41-40c-2 14-9 28-20 39-27 27-72 27-100 0-27-28-27-73 0-100h0c11-11 25-18 40-20l-41-41 60-60 162 163-60 59z m-140-81l0 0c-16 17-16 43 0 59 16 17 42 17 59 0 16-16 16-42 0-59l0 0c-17-16-43-16-59 0z m18-81l61 61c0 0 0 0 0 0 0 0 0 0 0 0l61 61 19-19-121-122-20 19z m-467 689l0 0c-11 11-25 18-39 20l40 41-59 60-163-162 60-60 41 41c2-15 9-29 20-40 14-13 32-20 50-20 18 0 36 7 50 20 27 28 27 73 0 100z m-161-61l-19 20 122 121 19-19-122-122z m140-18c-16-16-42-16-59 0-16 16-16 42 0 59 8 8 19 12 30 12 11 0 21-4 29-12 17-16 17-43 0-59z m24-219h29v-32h-29v32z m98 0h29v-32h-29v32z m99 0h28v-32h-28v32z m98 0h29v-32h-29v32z m98 0h29v-32h-29v32z" horiz-adv-x="1000" />

<glyph glyph-name="020-worker" unicode="&#xe835;" d="M585 396c70 30 121 97 128 177 14 6 24 21 24 37v11c0 21-15 38-35 41-24 70-84 123-157 139 0 1 0 3 0 4 0 25-20 45-45 45s-45-20-45-45c0-1 0-3 0-4-73-16-132-69-157-139-19-3-34-20-34-41v-11c0-16 9-31 23-37 7-80 58-147 128-177-140-38-244-166-244-319v-227h659v227c0 153-104 281-245 319z m43-46c17-9 34-18 49-30v-193h-49v223z m-128 471c9 0 16-7 16-16s-7-16-16-16-16 7-16 16 7 16 16 16z m-33-47c9-9 20-14 33-14 13 0 25 5 33 14 63-11 114-54 138-111h-342c24 57 76 100 138 111z m-175-164v11c0 7 6 13 13 13h390c7 0 13-6 13-13v-11c0-7-6-13-13-13h-390c-7 0-13 6-13 13z m25-42h367c-12-91-90-161-184-161-94 0-172 70-183 161z m183-190c31 0 61-5 89-13-25-21-56-32-89-32-32 0-64 11-88 32 28 8 57 13 88 13z m-98-42c28-20 63-32 98-32 36 0 70 12 99 32v-209h-197v209z m-79-16c16 12 32 21 50 30v-223h-50v193z m-70-441h-53v198c0 87 36 164 94 219v-169h-41v-248z m28 2v217h13 108 197 107 13v-217h-438l0 0z m520-2h-53v248h-42v169c58-55 95-132 95-219v-198z m-717 596h29v-32h-29v32z m-84-214h29v-31h-29v31z m84-156h29v-31h-29v31z m-61-180h29v-32h-29v32z m122 687h29v-31h-29v31z m-122 108h29v-32h-29v32z m160 86h29v-32h-29v32z m704-331h29v-32h-29v32z m84-214h29v-31h-29v31z m-84-156h29v-31h-29v31z m61-180h29v-32h-29v32z m-122 687h29v-31h-29v31z m122 108h29v-32h-29v32z m-159 86h28v-32h-28v32z m-298-728h32v-29h-32v29z m70 0v-29h109v-50h28v79h-137z" horiz-adv-x="1000" />

<glyph glyph-name="021-user" unicode="&#xe836;" d="M587 421c80 34 137 113 137 206 0 123-101 223-224 223-123 0-223-100-223-223 0-93 56-172 136-206-148-39-257-174-257-333v-238h689v238c0 159-110 294-258 333z m-281 206c0 107 87 194 194 194 108 0 195-87 195-194 0-108-87-195-195-195-107 0-194 87-194 195z m194-224c34 0 66-5 97-15l-97-110-96 110c30 10 63 15 96 15z m15-224l0 0v71l22 26v-269l-37-36-37 36v269l23-26v-71h29l0 0z m301-300l0 0h-118v198h-28v-198h-339v198h-29v-198h-117v209c0 129 78 241 190 289l59-68v-315l66-64 66 64v315l59 68c112-48 191-160 191-289v-209z m-111 417l-20-20c36-35 61-79 72-127l28 6c-13 54-40 103-80 141z m-622 208h28v-33h-28v33z m-60-224h29v-33h-29v33z m60-163h28v-33h-28v33z m-64-189h29v-33h-29v33z m128 720h29v-33h-29v33z m-128 112h29v-33h-29v33z m167 49h29v-33h-29v33z m703-305h29v-33h-29v33z m61-224h29v-33h-29v33z m-61-163h29v-33h-29v33z m63-189h29v-33h-29v33z m-128 720h29v-33h-29v33z m128 112h29v-33h-29v33z m-167 49h29v-33h-29v33z m-270-168v112h-29v-112h-112v-29h112v-112h29v112h112v29h-112z" horiz-adv-x="1000" />

<glyph glyph-name="022-megaphone-1" unicode="&#xe837;" d="M698 528c-30 60-81 106-143 129l-10-27c55-21 100-62 127-115 27-54 32-115 15-172l28-9c19 65 13 134-17 194z m69 34c-43 85-110 151-195 191l-12-26c79-37 142-99 181-177 39-80 51-167 33-254l28-6c20 93 7 187-35 272z m71 36c-54 108-139 195-246 252l-13-25c101-54 182-137 233-240 52-103 69-218 51-332l29-4c19 120 0 240-54 349z m-396-387l57 7 25-51 94 47-56 111c23 15 40 37 48 63 11 31 8 64-6 93-28 56-93 81-150 60l-56 111-93-46 24-47-220-231-79-40 75-150 88 44 30 4 281-336 132 66-194 295z m136 257c11-22 13-47 5-71-6-19-18-35-34-46l-82 164c43 14 90-5 111-47z m-193 145l194-386-42-21-193 387 41 20z m-267-436l-49 99 51 25 49-98-51-26z m79 35l-55 109 200 211 5-9 138-278-288-33z m298-306l41 21-13 25-47-23-16 19 39 20-13 25-45-22-17 19 41 20-13 26-47-23-16 19 40 20-12 26-47-23-113 135 153 18 185-281-83-41-17 20z m-290 451l23 23 21-19-23-24-21 20z m132 138l-84-88 21-19 56 58 15-30 25 13-33 66z m88 235h29v-32h-29v32z m272-491h29v-32h-29v32z m-44-87h29v-32h-29v32z m191 36h28v-32h-28v32z m97 372h29v-32h-29v32z m-137 203h28v-32h-28v32z m107-49h29v-32h-29v32z m30 123h29v-32h-29v32z m-166-730h29v-31h-29v31z m125-110h29v-32h-29v32z m-162-70h29v-32h-29v32z m-288 901h29v-32h-29v32z m-258-164h29v-32h-29v32z m104 115h29v-32h-29v32z m-214 33h29v-32h-29v32z" horiz-adv-x="1000" />

<glyph glyph-name="023-video-call" unicode="&#xe838;" d="M486 449h28v-18h-28v18z m508 401l0 0h-988v-553h84c-15-19-24-43-24-69 0-41 22-77 54-97-65-24-111-87-111-160v-121h319 24 296 24 320v121c0 73-47 136-112 160 32 20 54 56 54 97 0 26-9 50-24 69h84v553l0 0z m-899-622c0 47 38 85 85 85 47 0 86-38 86-85s-39-86-86-86c-47 0-85 39-85 86z m175 69h137v-4c-13-19-21-41-21-65 0-16 4-32 10-46h-100v-84c-16 14-35 26-55 33 32 20 53 56 53 97 0 26-9 50-24 69z m489-166c-20-7-39-19-54-33v84h-101c7 14 10 30 10 46 0 24-8 46-21 65v4h137c-15-19-24-43-24-69 0-41 21-77 53-97z m-83 23l0 0v-35h-89c-9 5-17 9-26 12 9 6 18 14 26 23l89 0 0 0z m-176-12c-47 0-85 39-85 86s38 85 85 85c47 0 85-38 85-85s-38-86-85-86z m-60-11c-10-3-18-7-27-12h-89v35h90c7-9 16-17 26-23z m-117-253l0 0h-41v88h-28v-88h-147v88h-29v-88h-41v93c0 79 64 143 143 143 79 0 143-64 143-143l0-93 0 0z m17 155c-8 22-21 41-37 57h74c-16-16-28-35-37-57z m303-155l0 0h-41v88h-29v-88h-146v88h-29v-88h-41v93c0 79 64 143 143 143 79 0 143-64 143-143v-93z m17 155c-8 22-21 41-37 57h74c-16-16-29-35-37-57z m303-62v-93h-41v88h-29v-88h-146v88h-29v-88h-41v93c0 79 64 143 143 143s143-64 143-143z m-143 171c-47 0-85 39-85 86s38 85 85 85 85-38 85-85-38-86-85-86z m146 184h-89c-16 10-36 16-57 16s-41-6-58-16h-204c-17 10-37 16-58 16s-41-6-58-16h-204c-17 10-37 16-58 16s-40-6-57-16h-89v496h932v-496l0 0z m-885 459v-422h838v422h-838z m520-389l0 0h-23v60h-28v-60h-100v60h-28v-60h-23v64c0 39 23 73 55 90l32-37v-49h28v49l32 37c33-17 55-51 55-90v-64l0 0z m-115 296v-19l-11-11h-32c7 26 30 44 57 44 27 0 50-18 57-44h-33l-10 11v19h-28l0 0z m0-58l13 12 12-12h46c-6-26-30-45-57-45-27 0-50 19-57 45h43z m31-75l-17-19-17 19c6 1 11 2 17 2s11-1 17-2z m373-168h-261v69c0 53-31 98-77 118 21 16 35 41 35 70 0 48-39 87-87 87s-87-39-87-87c0-29 14-54 35-70-46-20-77-65-77-118v-69h-261v365h780v-365z m-717 273h29v-31h-29v31z m16-149h29v-31h-29v31z m94 44h29v-31h-29v31z m29 144h28v-31h-28v31z m482-39h29v-31h-29v31z m-16-149h29v-31h-29v31z m-93 44h28v-31h-28v31z m-29 144h28v-31h-28v31z" horiz-adv-x="1000" />

<glyph glyph-name="024-teamwork-1" unicode="&#xe839;" d="M145 41h29v-23h-29v23z m787 144h63l-48 109c-2 57-49 103-106 103-5 0-9-1-14-1-31 124-132 219-255 244 24 19 40 49 40 83 0 58-47 106-105 106-59 0-106-48-106-106 0-34 16-64 41-83-53-11-103-35-145-69-56-46-95-108-112-178-8 3-17 4-26 4-58 0-106-48-106-106 0-37 19-69 48-88-59-24-101-81-101-148v-112h318v102c55-39 121-59 189-59 62 0 123 17 175 50v-93h318v112c0 54-27 101-68 130z m5 60l13-31h-37c10 9 18 20 24 31z m-96-31c-38 0-69 27-76 62h152c-7-35-38-62-76-62z m28-32l-28-32-28 32c9 2 19 3 28 3 9 0 19-1 28-3z m-101 32h-33l12 29c5-11 13-21 21-29z m73 154c38 0 69-27 76-63h-32v25h-29v-25h-91c7 36 38 63 76 63z m-334 432c37 0 68-27 75-63h-47l-14 16v25h-29v-25l-16-16h-45c7 36 38 63 76 63z m-76-91h57l18 17 16-17h60c-7-36-38-63-75-63-38 0-69 27-76 63z m103-95l-27-31-28 31c9 2 18 3 28 3 9 0 18-1 27-3z m-84-10l42-49v-62h29v62l42 49c44-21 74-66 74-117v-83h-36v79h-28v-79h-132v79h-29v-79h-36v83c1 52 30 96 74 117z m-291-236c40 0 74-31 77-71-43 3-70 15-85 24 4 5 5 8 6 9l-26 12c-1-1-13-23-48-39 6 37 38 65 76 65z m-75-95c21 7 36 17 47 27 16-11 50-28 102-31-10-32-39-55-74-55-36 0-67 25-75 59z m103-91l-28-32-27 32c8 2 18 3 27 3 10 0 19-1 28-3z m102-210h-35v78h-29v-78h-132v78h-29v-78h-35v83c0 51 30 96 73 117l43-49v-62h29v62l42 49c43-21 73-66 73-117v-83z m218 42c-70 0-138 25-192 69-9 55-47 100-97 120 28 19 47 51 47 88 0 39-21 73-53 91 22 96 89 173 176 211-25-28-40-65-40-106v-112h317v112c0 41-15 78-40 106 85-37 151-111 174-205-37-16-63-52-64-94l-42-109h57c-37-26-62-67-67-113-52-38-112-58-176-58z m429-42v78h-29v-78h-132v78h-29v-78h-35v83c0 51 30 96 73 117l43-49v-62h28v62l43 49c43-21 73-66 73-117v-83h-35z m-109 69h28v-23h-28v23z m-335 432h29v-22h-29v22z m-192 203h29v-32h-29v32z m629-139h29v-32h-29v32z m-389-594h29v-32h-29v32z m-315-61h29v-32h-29v32z m501 26h28v-33h-28v33z m4 829h29v-32h-29v32z m150 113h29v-32h-29v32z m-789-42h29v-33h-29v33z m-6-244h29v-32h-29v32z" horiz-adv-x="1000" />

<glyph glyph-name="025-presentation-1" unicode="&#xe83a;" d="M726 345c-16 93-83 168-172 196 53 27 90 82 90 146 0 90-74 163-164 163s-163-73-163-163c0-64 36-119 89-146-88-27-156-103-172-196h-116v-168h94v-327h537v327h93v168l-116 0 0 0z m-69 90c19-26 33-57 40-90h-108l25 25v23c20 5 37 21 43 42z m-58 46c17 0 31-14 31-30s-14-31-31-31-31 14-31 31 14 30 31 30z m-14-88v-12l-37-36h-53v72l49 57c-3-7-4-15-4-23 0-28 19-52 45-58z m-105 51l-61 71c19 5 40 8 61 8s42-3 62-8l-62-71z m0 377c74 0 134-60 135-133-86 2-139 30-161 45 10 12 14 20 14 21l-26 12c0 0-23-46-96-73 3 71 62 128 134 128z m-132-158c40 14 67 32 86 49 24-17 81-50 178-53-13-61-67-107-132-107-66 0-121 48-132 111z m76-212c0 6-1 12-3 17l45-51v-72h-51l-36 36v12c25 6 45 30 45 58z m-60 30c17 0 31-14 31-30s-14-31-31-31-31 14-31 31 14 30 31 30z m-58-43c5-22 22-40 44-45v-23l24-25h-111c7 35 22 66 43 93z m-66-559v296h480v-296h-480z m573 327h-666v110h666v-110z m-616 50v20h-29v-49h73v29h-44z m449 40h34v-29h-34v29z m70 0v-29h48v-26h29v55h-77z m-193-142h35v-29h-35v29z m65 0v-29h83v-99h28v128h-111z m-298-226v49h-29v-78h58v29h-29z m-170 538h29v-31h-29v31z m-80 156h29v-32h-29v32z m208-45h29v-31h-29v31z m-116 213h29v-32h-29v32z m719-324h29v-31h-29v31z m80 156h29v-32h-29v32z m-208-45h29v-31h-29v31z m116 213h29v-32h-29v32z" horiz-adv-x="1000" />

<glyph glyph-name="026-businessman" unicode="&#xe83b;" d="M287 159h29v-45h-29v45z m634-180v-51h-85v-29h114v80h-29z m-159-51h42v-29h-42v29z m189 420h-110c-4 29-16 56-35 76-14 37-50 63-92 63h-310c56 35 94 97 94 167 0 108-88 196-196 196 0 0 0 0 0 0s0 0 0 0c-108 0-196-88-196-196 0-30 7-59 19-85 20-41 54-74 95-93-126-35-219-152-219-290v0-208 0h416v-128h582v451c0 26-21 47-48 47z m-242 90l0 0c52 0 96-39 103-90h-33c-7 33-36 58-71 58-34 0-63-25-70-58h-33c7 51 50 90 103 90h1z m40-90h-81c6 17 22 29 40 29s35-12 41-29z m-447 473c92 0 167-75 167-167 0 0 0-1 0-2-111 3-177 40-203 59 12 15 18 25 18 27l-26 12c0-1-30-60-123-93 2 91 76 164 167 164z m-165-193c51 16 86 40 109 62 26-20 97-63 220-66-15-78-83-137-164-137-83 0-152 61-165 141z m256-169l-91-105-81 92c26 8 53 13 81 13h91z m24-158v-294h-260v170h-29v-170h-98v179 0c0 112 67 207 163 250l94-109v-129h29v129l115 132h231c-46-18-81-60-86-111h-111c-26 0-48-21-48-47z m553-422h-524v216c13-10 29-16 47-16h160v-79h110v79h161c18 0 34 6 46 16v-216z m-288 150v129h53v-129h-53z m288 125c0-25-20-46-46-46h-161v79h-110v-79h-160c-26 0-47 21-47 46v147c0 10 9 19 19 19h486c11 0 19-9 19-19v-147l0 0z m-210 145v-14-15h38v15 14h-38z m72 0v-29h89v-91h29v120h-118z m-257 355h29v-32h-29v32z m110 137h29v-32h-29v32z m217 16h29v-32h-29v32z m-52-227h29v-32h-29v32z" horiz-adv-x="1000" />

<glyph glyph-name="027-curriculum" unicode="&#xe83c;" d="M838 759v91h-557l-212-212v-697h93v-91h769v909h-93z m-565 42v-155h-155l155 155z m-175-831v648h204v203h507v-851h-711l0 0z m804-91l0 0h-711v62h647v789h64v-851l0 0z m-232 916v-29h84v-56h29v85h-113z m84-124h29v-29h-29v29z m0-582v-64h-125v-29h154v93h-29z m-210-64h39v-29h-39v29z m20 405h144v-28h-144v28z m-358 0h294v-28h-294v28z m0-100h502v-29h-502v29z m0-100h502v-29h-502v29z m0-101h502v-29h-502v29z m298 508c16 13 25 32 25 54 0 40-32 72-72 72-39 0-72-32-72-72 0-22 10-41 25-54-34-17-58-53-58-94v-76h210v76c0 41-23 77-58 94z m-47 97c21 0 38-14 42-33-34 1-61 9-77 15 8 11 21 18 35 18z m39-62c-7-14-22-24-39-24-23 0-41 18-43 40 18-6 46-14 82-16z m38-176h-153v47c0 37 27 68 62 75v-72h29v72c35-7 62-38 62-75v-47l0 0z" horiz-adv-x="1000" />

<glyph glyph-name="028-presentation" unicode="&#xe83d;" d="M755 717v-29h84v-157h29v186h-113z m84-226h29v-32h-29v32z m118 247v112h-829v-112h40v-66c-25-29-40-66-40-106s15-78 40-106v-60c-75-43-125-123-125-215v-172h365l-72-163h120l89 201 88-201h120l-98 223h302v112h-39v553h39z m-667-39c73 0 133-59 134-132-85 3-137 30-159 45 9 11 13 19 14 20l-26 13c-1-1-23-46-96-73 4 71 62 127 133 127z m336-266h-243c42 29 69 78 69 133 0 89-72 162-162 162-34 0-67-11-93-30v40h692v-553h-454v80h191c46 0 83 38 83 84 0 46-37 84-83 84z m-467 109c40 14 67 32 86 49 23-17 80-49 176-53-13-60-67-105-131-105-65 0-120 47-131 109z m200-138l-69-78-60 69c19 6 39 9 60 9h69l0 0z m-142 17c-7-2-14-4-20-7v20c6-5 13-9 20-13z m189-111v-268h-231v136h-29v-136h-74v143c0 89 53 165 129 199l75-86v-104h29v104l92 106h229c30 0 54-25 54-55 0-30-24-55-54-55h-191v16h-29l0 0z m31-431h-56l85 194h56l-85-194z m272 0h-57l-85 194h56l86-194z m219 277v-54h-286-75-45-75-12v54h493z m-760 611h-11v54h771v-54h-10l-750 0 0 0z m108-604h29v-37h-29v37z m450 492c-29 0-52-24-52-52 0-4 1-8 2-12l-80-46c-10 9-23 14-37 14-28 0-51-23-51-51s23-52 51-52c29 0 52 23 52 52 0 4 0 8-1 12l80 46c9-9 22-15 36-15 29 0 52 23 52 52 0 28-23 52-52 52z m-167-170c-12 0-23 10-23 23s11 23 23 23 23-11 23-23-10-23-23-23z m167 95c-13 0-23 10-23 23s10 23 23 23 23-10 23-23c0-13-10-23-23-23z m67-180c-29 0-52-24-52-52 0-29 23-52 52-52 28 0 52 23 52 52 0 28-24 52-52 52z m0-75c-13 0-23 10-23 23s10 23 23 23 23-11 23-23-10-23-23-23z" horiz-adv-x="1000" />

<glyph glyph-name="029-engineer" unicode="&#xe83e;" d="M585 396c69 30 119 95 128 172h10c23 0 42 19 42 42v11c0 23-19 42-42 42h-21c-22 63-73 112-137 133-5 31-32 54-65 54-32 0-59-23-65-54-64-21-114-70-137-133h-21c-23 0-41-19-41-42v-11c0-23 18-42 41-42h11c8-77 58-142 127-172-140-38-244-166-244-319v-227h659v227c0 153-104 281-245 319z m-151 369v-39h29v58c0 20 17 37 37 37 21 0 38-17 38-37v-58h28v39c48-18 86-56 105-102h-342c20 46 58 84 105 102z m-157-168c-7 0-13 6-13 13v11c0 7 6 13 13 13h446c7 0 13-6 13-13v-11c0-7-6-13-13-13h-446z m40-29h367c-12-91-90-161-184-161-94 0-172 70-183 161z m183-190c32 0 62-5 91-14l-91-104-91 104c29 9 60 14 91 14z m301-499h-111v188h-29v-188h-322v188h-29v-188h-110v198c0 124 74 230 180 276l106-121v-142h29v142l105 121c106-46 181-152 181-276v-198l0 0z m-105 398l-20-20c34-34 58-76 69-121l28 6c-12 51-39 98-77 135z m-210-230h29v-50h-29v50z m-385 428h29v-32h-29v32z m-84-214h29v-31h-29v31z m84-156h29v-31h-29v31z m-61-180h29v-32h-29v32z m122 687h29v-31h-29v31z m-122 108h29v-32h-29v32z m160 86h28v-32h-28v32z m670-331h29v-32h-29v32z m84-214h29v-31h-29v31z m-84-156h29v-31h-29v31z m61-180h29v-32h-29v32z m-122 687h29v-31h-29v31z m122 108h29v-32h-29v32z m-159 86h29v-32h-29v32z" horiz-adv-x="1000" />

<glyph glyph-name="030-conversation" unicode="&#xe83f;" d="M270 185c41 23 68 67 68 117 0 74-60 134-134 134s-134-60-134-134c0-50 27-94 67-117-79-28-137-104-137-193v-142h407v142c0 89-57 165-137 193z m-66 222c57 0 103-45 105-102-64 3-104 23-122 35 6 8 9 14 10 14l-26 13c-1-2-19-35-72-56 5 54 50 96 105 96z m-104-126c30 10 52 24 67 38 20-14 65-39 139-42-11-47-53-81-102-81-51 0-94 37-104 85z m148-119l-44-51-45 51c15 3 29 5 45 5 15 0 30-2 44-5z m131-283h-55v107h-29v-107h-182v107h-29v-107h-55v113c0 71 41 131 101 159l59-68v-83h29v83l59 68c60-28 102-88 102-159v-113l0 0z m-190 95h29v-30h-29v30z m712 193h90l-60 138c-2 72-62 131-135 131-73 0-132-59-134-132l-53-137h83c-59-35-99-100-99-175v-142h407v142c0 75-40 140-99 175z m46 29h-68c19 15 34 35 43 57l25-57z m-151 211c54 0 98-40 105-91h-51v37h-29v-37h-129c7 51 51 91 104 91z m105-120c-7-51-51-91-105-91s-97 40-104 91h209z m-60-125l-45-51-44 51c14 3 29 5 44 5s31-2 45-5z m-190 34l21 54c9-21 23-40 41-54h-62z m320-317h-55v107h-29v-107h-182v107h-28v-107h-56v113c0 71 42 131 102 159l59-68v-83h29v83l59 68c60-28 101-88 101-159l0-113 0 0z m-189 95h29v-30h-29v30z m80 710c0 92-74 166-166 166-45 0-86-18-116-47v47h-415v-332h62l-42-77 135 77h260v47c30-29 71-47 116-47 5 0 9 0 14 1l136-78-57 105c45 31 73 82 73 138z m-311 81c-13-24-21-51-21-81s8-57 21-81v-56h-239l-53-31 17 31h-82v274h357v-56l0 0z m165-217l-4 0c-6-1-11-1-16-1-76 0-137 61-137 137 0 76 61 137 137 137 76 0 137-61 137-137 0-50-27-96-70-120l-13-7 22-41-56 32z m-110 150h29v-32h-29v32z m79 0h29v-32h-29v32z m79 0h29v-32h-29v32z m-479 63h29v-32h-29v32z m79 0h29v-32h-29v32z m79 0h29v-32h-29v32z m-158-108h29v-32h-29v32z m79 0h29v-32h-29v32z m79 0h29v-32h-29v32z" horiz-adv-x="1000" />

</font>
</defs>
</svg>
